<svg version="1.1" id="Слой_1" xmlns="http://www.w3.org/2000/svg" x="0" y="0" viewBox="0 0 300 150" style="enable-background:new 0 0 300 150" xml:space="preserve"><path d="M157.5 41.6c.1.1.1.2.1.2V58c0 .1-.1.2-.3.2h-.2c-.7-.2-1.4-.5-2-.9-.2-.1-.3-.3-.3-.6v-3.5c-.1 0-.3-.1-.4-.1h-9.6c-.8 0-.8 0-1.2.6-2.2 3-4.3 6-6.5 9-.1.1-.2.2-.2.3-.1.1-.2.2-.3.2h-3.1c0-.1 0-.2.1-.2.1-.2.2-.3.3-.5 2.2-3 4.4-6.1 6.6-9.1.1-.2.3-.3.3-.6-.1-.2-.3-.2-.5-.2-.5-.2-1-.3-1.4-.5-.7-.3-1.4-.7-2-1.2-1.2-.9-2-2.2-2.4-3.6-.4-1.5-.4-3 0-4.4.5-1.7 1.5-3 3-4 1-.7 2.1-1.1 3.3-1.3.8-.2 1.7-.2 2.5-.2h8.1c.1.1 0 .2 0 .2l-.2.2c-.8.6-1.6 1.2-2.3 1.9-.3.3-.5.4-.9.4h-2.6c-.9 0-1.9 0-2.8.1-.9 0-1.8.2-2.7.6-1.6.8-2.5 2.1-2.7 3.9-.1.7 0 1.3.1 1.9.3 1.2 1 2.1 2 2.8.8.5 1.6.8 2.5 1 .6.1 1.2.1 1.8.1h10.6c.7 0 .7 0 .7-.7v-6.1c0-.6 0-.6.6-1 .5-.7 1.2-1 2-1.1zM126.4 90.2c-.1 0-.2.1-.3.1h-1.6c-.3 0-.5-.1-.6-.3-.3-.4-.6-.7-.8-1.1-2-2.7-4.1-5.4-6.1-8.2-.1-.2-.2-.3-.4-.5 0-.1-.1-.1-.2-.1 0 .1-.1.2-.1.2v9.1c0 .3 0 .6-.1.8-.1 0-.2.1-.3.1-.9.1-1.9 0-2.4-.1 0-.1-.1-.2-.1-.3V75c0-.2.1-.3.3-.3h1.8c.4 0 .6.1.8.4 1.2 1.7 2.5 3.4 3.8 5.1 1 1.3 2 2.6 2.9 4 .1.1.2.3.3.4 0 0 .1.1.2.1.1-.1.1-.2.1-.3v-8.9c0-.7 0-.7.7-.7H126.2c.1 0 .2.1.2.2v14.5c.1.1.1.4 0 .7zM17.7 74.7c.3 0 .5-.1.7-.1h6c.7 0 1.4.1 2 .3.2.1.5.1.7.2 1.7.7 2.6 2.1 2.8 3.9.1.7 0 1.3-.1 2-.4 1.5-1.3 2.5-2.6 3.1-.1 0-.1 0-.2.1-.3.2-.4.3-.2.6.6.8 1.1 1.7 1.7 2.5l1.5 2.1c.1.2.3.4.4.7-.1.1-.2.1-.3.1h-2.7c-.2 0-.4-.1-.5-.2-.1-.1-.2-.2-.3-.4-.8-1.3-1.7-2.5-2.5-3.8-.1-.2-.3-.4-.4-.6-.2-.3-.4-.4-.7-.4h-2.3c-.1 0-.2.1-.2.2v4.3c0 .8 0 .8-.8.8h-1.9c-.1 0-.2-.1-.2-.2V74.9c.1 0 .1-.1.1-.2zm3 2.8c-.1.2-.1.4-.1.6V81.8c0 .3.1.4.4.4h3.5c.4 0 .7-.1 1.1-.3.9-.4 1.5-1.2 1.4-2.3-.1-1.1-.6-1.8-1.6-2.1-.2-.1-.4-.1-.7-.1-1.2 0-2.3 0-3.5-.1-.1.1-.3.1-.5.2zM103 90.5c-.9 0-1.8-.2-2.8-.5-2-.8-3.5-2.3-4.2-4.3-.9-2.4-.9-4.8.3-7.2 1.2-2.4 3.2-3.7 5.8-4.1.9-.1 1.9-.1 2.8.1 2.9.6 4.8 2.4 5.8 5.2.7 2.1.6 4.2-.3 6.2-1.1 2.4-2.9 3.9-5.4 4.5-.6.1-1.2.1-2 .1zm-4.6-8.1c0 1.3.4 2.5 1.1 3.5 2 2.6 6 2.4 7.7-.4.5-.8.8-1.7.8-2.6.1-1.4-.2-2.7-1.1-3.9-1-1.3-2.3-1.9-3.9-1.9-1.6.1-2.9.8-3.8 2.3-.5.9-.8 1.9-.8 3zM282.4 85.1c.1-.2.1-.4.1-.6v-8.9c0-1 0-.9.9-.9h1.4c.3 0 .4.1.4.4v15c0 .1-.1.2-.2.2h-1.6c-.3 0-.6-.1-.8-.4-.1-.2-.3-.4-.4-.6L275 80c-.1-.2-.3-.3-.4-.5 0 0-.1-.1-.2-.1-.1.1-.1.1-.1.2v10.2c0 .1-.1.2-.1.4h-2.4c-.1 0-.1 0-.2-.1 0-.1-.1-.2-.1-.3V74.8c.2-.2.4-.2.6-.2h1.5c.4 0 .6.1.9.4.9 1.2 1.9 2.4 2.8 3.6 1.6 2 3.1 4 4.7 6l.3.3c0 .2.1.2.1.2zM48.4 82.4v-7.2c0-.5.1-.6.5-.6H53.7c.7 0 1.4.1 2.1.2 3.4.7 5.7 3.3 6.1 6.5.2 1.3.1 2.6-.4 3.9-.8 2.4-2.5 4-4.9 4.7-.7.2-1.4.4-2.1.4H49c-.5 0-.6-.1-.6-.6V82.4zm3 5c.1 0 .1.1.1.1 1.1 0 2.1.1 3.2 0 1.9-.2 3.2-1.2 3.8-3 .5-1.4.5-2.8-.1-4.1-.7-1.8-2.1-2.7-3.9-2.9-.9-.1-1.8 0-2.7 0-.2 0-.4 0-.6.2v8.9c.1.2.1.5.2.8zM260.1 90.5c-2.3.1-4.3-.7-6-2.2-1.2-1.1-1.9-2.4-2.2-4-.6-2.7 0-5.2 1.8-7.3 1.1-1.2 2.4-2 4-2.4 2-.5 4-.4 5.8.5 2.4 1.1 3.9 3 4.4 5.6.3 1.5.3 3-.3 4.5-1.1 2.9-3.3 4.7-6.4 5.2-.3.1-.7.1-1.1.1zm-5.4-8v.3c.1 1.5.6 2.8 1.8 3.8 1.4 1.2 3 1.6 4.8 1.2.9-.2 1.8-.6 2.4-1.3 1.2-1.2 1.7-2.7 1.6-4.4 0-.9-.3-1.7-.7-2.5-.6-1-1.4-1.8-2.5-2.3-.8-.4-1.7-.5-2.6-.4-1.6.2-3 .9-3.9 2.2-.6 1-.9 2.1-.9 3.4zM159.7 90.5c-1.1 0-2.2-.2-3.3-.6-2.3-1-3.9-2.7-4.6-5.2-.6-2.2-.4-4.3.8-6.3 1-1.7 2.4-2.9 4.2-3.5 2-.7 4-.7 6 0 2.6 1 4.2 2.8 4.9 5.4.7 2.7.1 5.2-1.7 7.4-1.2 1.4-2.7 2.2-4.5 2.6-.5.2-1.2.2-1.8.2zm5.4-8c-.1-.4-.1-.9-.2-1.3-.6-2.6-2.7-4.3-5.3-4.2-2.8.1-4.4 1.9-4.9 3.7-.2.6-.3 1.2-.3 1.9 0 1.5.5 2.9 1.6 4 1.4 1.4 3.1 1.9 5 1.4 1.3-.3 2.4-1 3.1-2.1.7-1.2 1-2.2 1-3.4zM209.7 83.5c-.1 0-.2.1-.3.1h-6.7c-.8 0-.8 0-.8.8v2.9c0 .4.1.4.5.5h8c.1 0 .2.1.4.1 0 .1.1.1.1.1v1.9c0 .2-.1.3-.3.3h-10.7c-.7 0-.7 0-.7-.7V75.2c0-.7 0-.7.7-.7h10c.3 0 .6 0 .9.1 0 .1.1.2.1.3v1.6c0 .3-.1.4-.4.4h-8.2c-.1 0-.2.1-.2.3V80.4c0 .6.1.6.6.6h6.9c.3 0 .3.1.3.3v1.8c-.1.3-.1.4-.2.4zM46.7 90.2c-.2 0-.3.1-.4.1h-2.2c-.3 0-.5-.1-.6-.4-.3-.8-.7-1.6-1-2.4-.1-.1-.1-.3-.2-.4-.1-.3-.3-.4-.7-.4H35.8c-.2 0-.4.1-.4.3-.1.2-.1.3-.2.5-.3.7-.6 1.4-.9 2.2-.1.1-.1.3-.2.4-.1.2-.2.3-.4.3h-2.3c-.1 0-.1 0-.2-.1-.1-.2 0-.4.1-.6.5-1.1.9-2.2 1.4-3.3l4.5-10.8c.1-.3.3-.6.4-.9h2.1c.4 0 .6.1.7.5.7 1.6 1.3 3.2 2 4.8l3.9 9.3c.1.3.2.5.3.8 0-.2 0-.1.1.1zM41 83.8c0-.1 0-.3-.1-.4-.1-.3-.3-.6-.4-.9-.5-1.1-.9-2.2-1.4-3.4-.1-.2-.1-.4-.3-.5-.2.1-.2.3-.3.5-.6 1.3-1.1 2.6-1.6 4 0 .1-.1.2-.1.4v.3c.5.1 2 .1 3.8.1.1 0 .2-.1.4-.1zM93.4 76.5c-.3.6-1.2 1.9-1.5 2.2-.2 0-.3-.1-.4-.2-.5-.3-.9-.6-1.4-.8-.8-.4-1.7-.6-2.6-.5-.5 0-.9.1-1.3.4-.5.4-.7.9-.6 1.6.1.4.2.7.6.9.3.2.6.3.9.5.6.2 1.2.4 1.9.6l1.8.6c.6.2 1.1.5 1.6.9.8.6 1.3 1.4 1.4 2.4.1.7.1 1.5-.1 2.2-.5 1.7-1.6 2.7-3.3 3.1-1.8.5-3.6.3-5.3-.4-.9-.4-1.8-.9-2.5-1.5-.2-.1-.3-.2-.4-.5.2-.4.5-.7.8-1.1.3-.3.5-.7.9-1 .2 0 .3.1.5.2.4.4.9.7 1.4 1 1.1.6 2.4.8 3.7.7.3 0 .6-.2.9-.4.6-.4.8-1 .7-1.6-.1-.5-.3-.8-.7-1.1-.4-.2-.9-.4-1.3-.5-.6-.2-1.1-.3-1.7-.5-.6-.2-1.1-.3-1.6-.6-.4-.2-.7-.4-1.1-.6-1-.7-1.6-1.6-1.7-2.8-.1-.6 0-1.2.1-1.8.3-1 .8-1.8 1.6-2.4.9-.6 1.8-.9 2.9-1 2.1-.1 3.9.4 5.6 1.6l.3.3c-.2 0-.2 0-.1.1zM79.1 78.7c-.3-.2-.5-.3-.7-.5-.8-.5-1.6-.9-2.5-1-.5-.1-1.1-.1-1.6 0-.2.1-.5.2-.7.3-.7.4-.9 1.2-.6 1.9.1.2.3.5.5.6.3.2.6.3.9.5.6.2 1.2.4 1.9.6l1.8.6c.4.1.7.3 1.1.5 1.5.9 2.1 2.2 2 3.9 0 .4-.1.7-.2 1-.3 1.1-1 2-2 2.6-.7.5-1.6.7-2.4.8-1.8.2-3.5-.2-5.1-1-.6-.3-1.1-.7-1.6-1.1l-.4-.4c.1-.3.3-.5.5-.8.2-.3.4-.5.6-.7.2-.2.3-.5.6-.6.2.1.4.3.5.4.5.4 1 .8 1.6 1 1.1.5 2.2.6 3.4.5.4-.1.7-.3 1-.5.6-.5.7-1.9-.2-2.5-.3-.1-.5-.3-.8-.4-.6-.2-1.2-.4-1.8-.5-.7-.2-1.4-.4-2.1-.7-.5-.2-.9-.4-1.3-.7-.7-.5-1.1-1.1-1.3-2-.2-.8-.3-1.7 0-2.5.3-1.2 1-2.1 2.1-2.8.9-.5 2-.8 3.1-.7 1.8 0 3.5.5 5 1.7l.3.3c.1.1.1.2 0 .3l-.1.1c-.4.6-.8 1.1-1.1 1.7-.2-.1-.3 0-.4.1zM227.8 87.8c-.1.1-.2.2-.2.3-1.2 1.2-2.6 2.1-4.4 2.3-1.8.3-3.5.2-5.2-.6-2.2-1.1-3.7-2.8-4.3-5.2-.5-2.2-.3-4.3.8-6.2 1-1.8 2.6-3 4.6-3.6 1.1-.3 2.2-.4 3.4-.3 1 .1 2 .3 2.9.7.8.4 1.5.9 2.2 1.5.1 0 .1.1.1.2-.2.4-1.1 1.5-1.7 2-.1-.1-.2-.1-.3-.2-.3-.2-.6-.5-.9-.7-1.4-.9-2.9-1.2-4.4-.8-1.6.4-2.7 1.4-3.3 2.8-.9 2-.8 4 .5 5.9.8 1.2 1.9 1.9 3.3 2.1 1.6.3 3.1-.2 4.4-1.2.2-.2.4-.4.7-.5.2-.2.3-.2.5 0l1.3 1.3c-.1 0 0 .1 0 .2zM149.6 76.8c-.5.7-1.3 1.6-1.7 1.9-.1-.1-.2-.1-.3-.2-.3-.2-.5-.4-.8-.6-1-.7-2.1-1.1-3.4-1-1.6 0-3 .7-3.9 2-1 1.3-1.3 2.7-1.1 4.3.1.9.4 1.7.9 2.5 1.2 1.8 2.9 2.5 5 2.3 1.2-.1 2.2-.6 3.1-1.3.2-.1.3-.3.5-.4.2-.1.3-.1.4 0l.1.1c.4.4.8.8 1.1 1.2.1.1.1.2.2.3l-.3.3c-1.2 1.2-2.7 2.1-4.4 2.3-1.8.3-3.5.2-5.1-.6-2.5-1.2-4-3.3-4.4-6-.2-1.5-.1-3 .5-4.4.9-2.4 2.7-4 5.1-4.7 1.1-.3 2.2-.4 3.3-.3.7 0 1.4.2 2 .4 1.1.4 2.1 1 3 1.8.1-.1.1 0 .2.1z"/><path d="M169.4 40.6c-.3.4-1.5 1.7-1.8 2.1-.1 0-.2-.1-.3-.1-.3-.3-.6-.6-1-.8-1.3-1.1-2.7-1.9-4.4-2.2-1.8-.4-3.6-.3-5.4.3-1 .3-1.9.8-2.7 1.5-1.9 1.6-3 3.6-3.5 5.9-.1.2-.1.5-.1.7-.1.2-.1.3-.4.3h-2.5c-.1-.2-.1-.5-.1-.7.1-.7.3-1.4.5-2 .9-2.8 2.4-5 4.7-6.7 1.7-1.3 3.7-2 5.8-2.2 2.2-.2 4.3 0 6.4.8 1.7.7 3.2 1.7 4.5 3 .2-.1.2 0 .3.1zM237.5 77.3v12.6c0 .2-.1.3-.3.4h-2.1c-.2 0-.3-.1-.3-.3V77.6c0-.2-.1-.3-.3-.3h-3.9c-.8 0-.8 0-.8-.8v-1.6c.3-.1.5-.1.7-.1h11.7c.2 0 .3.1.3.3V77c0 .2-.1.3-.3.3h-3.8c-.3-.1-.6-.1-.9 0zM148 55c.1 0 .2-.1.3-.1h2.3c.3 0 .5.1.6.4.4.8.9 1.5 1.5 2.2 1.4 1.6 3.2 2.6 5.3 3 .8.2 1.7.2 2.6.1 2-.1 3.7-.8 5.2-2 .5-.4.9-.8 1.4-1.2.2-.1.3-.3.5-.4.4.3 1.6 1.4 1.8 1.8-.1.1-.1.2-.2.3-1.1 1.2-2.4 2.2-3.8 2.9-1.3.7-2.6 1-4 1.2-2.2.3-4.4.1-6.5-.7-2.1-.8-3.7-2.1-5.1-3.8-.7-.9-1.4-1.9-1.8-3-.1-.2-.1-.3-.2-.5.1 0 .1-.1.1-.2zM182.3 87.8c.2.5.1 1.9 0 2.4-.1 0-.2.1-.4.1H171.6c-.2 0-.3-.1-.3-.3V75.1c0-.2.1-.3.3-.4h2.1c.3 0 .4.1.4.4V86.9c0 .3 0 .5.1.8.1 0 .3.1.4.1h7c.2-.1.4 0 .7 0zM187.9 74.7c.1.2.1.4.1.5v11.5c0 .3 0 .6.1.8.3.2.6.1.9.1H196.3c0 .1.1.3.1.4v1.7c0 .3-.1.4-.4.4h-10.2c-.3 0-.3-.1-.4-.3V75.2c0-.6.1-.7.7-.7h1.5c0 .1.2.1.3.2zM67.3 74.7c.1.4.1.8.1 1.2v14c0 .3-.1.3-.3.3h-2c-.4 0-.5-.1-.5-.5V74.9c0-.3.1-.5.4-.5h2.1c-.1.2 0 .3.2.3zM248.1 90.2H246c-.5 0-.5 0-.5-.5V75.8c0-.4 0-.7.1-1.1.1 0 .2-.1.4-.1h2c.1 0 .2.1.3.3v14.5c0 .3 0 .5-.2.8zM63.7 107.5c.2.2.3.4.4.6.5.7.9 1.3 1.4 2 .1.2.3.3.3.6-.1 0-.2.1-.2.1h-1c-.3 0-.5-.1-.7-.3-.4-.6-.9-1.3-1.3-1.9-.6-.9-.4-.8-1.5-.8-.3 0-.6 0-.8.1-.1.1-.1.3-.1.4v2c0 .5 0 .5-.5.5H58.8c0-.1-.1-.2-.1-.3v-7.7c0-.5.1-.5.5-.5h3.5c.4 0 .9.1 1.3.2 1.3.5 1.9 1.4 1.8 2.7 0 1-.5 1.7-1.4 2.2-.3-.2-.5-.1-.7.1zm-2.2-4.1h-1c-.3 0-.4.1-.4.4v2.1c0 .3.1.4.4.4h2.1c.2 0 .5-.1.7-.2.5-.2.8-.8.8-1.3 0-.6-.3-1-.9-1.2-.2-.1-.5-.1-.7-.1-.3-.1-.6-.1-1-.1zM115.4 102.1c.2 0 .4-.1.6-.1h3.6c.5 0 1.1.1 1.6.4.6.3 1 .8 1.2 1.5.1.5.2 1 0 1.5-.2.7-.6 1.3-1.3 1.6-.2.1-.4.1-.5.3.1.2.2.4.3.5.5.7 1 1.4 1.5 2 .1.1.3.3.2.5 0 0 0 .1-.1.1-.5.1-1 0-1.6 0-.7-1-1.4-1.9-2.1-2.9-.6-.1-1.1-.1-1.7 0-.1 0-.2.1-.2.2v2.1c0 .2 0 .3-.1.5-.4.1-.8 0-1.1 0-.2 0-.3-.1-.3-.3v-7.5c-.1.1 0-.1 0-.4zm3 1.3h-1.1c-.3 0-.4.1-.4.4v2.1c0 .3.1.4.4.4h2.1c.1 0 .3 0 .4-.1.8-.2 1.2-.8 1.1-1.6 0-.4-.3-.7-.6-.9-.3-.1-.6-.2-.9-.2-.4-.1-.7-.1-1-.1zM157 107.7c-.6-.1-1.2 0-1.7 0-.2.2-.2.3-.2.5v1.8c0 .2 0 .4-.1.6-.4.1-.8.1-1.2 0-.1 0-.2-.1-.2-.2v-8.3c.2-.2.3-.2.5-.2h3.6c.6 0 1.1.1 1.6.4.6.3 1 .8 1.2 1.5.1.5.1 1 0 1.5-.2.7-.6 1.2-1.2 1.5l-.6.3c-.1.2.1.3.1.4.5.7 1 1.5 1.6 2.2.1.2.3.3.3.6-.5.1-1.1.1-1.6 0-.8-.6-1.4-1.6-2.1-2.6zm-1.8-4.2c0 .1-.1.1-.1.1v2.3c0 .2.1.3.4.3h2.1c.2 0 .3-.1.5-.1.6-.2 1-.7 1-1.3 0-.7-.3-1.1-1-1.3-.1 0-.2-.1-.3-.1-.8-.1-1.6-.1-2.5 0 0 .1-.1.1-.1.1zM142 106.2c-.1-1.7 1.3-4.1 4.2-4.3.8-.1 1.5 0 2.2.4 1.4.6 2.2 1.7 2.6 3.2.5 2-.6 5-3.9 5.4-.9.1-1.8 0-2.7-.4-1.6-1-2.4-2.3-2.4-4.3zm7.4.3c.1-2.2-1.8-3.6-3.8-3-.7.2-1.2.6-1.6 1.2-.5.8-.6 1.7-.3 2.6.3 1.2 1.2 1.9 2.4 2.1 1.2.2 2.2-.2 2.8-1.2.4-.6.5-1.2.5-1.7zM233.6 101.9c.6 0 1.2.1 1.7.3 2.9 1.1 3.8 4.9 1.7 7.2-1 1.1-2.2 1.5-3.6 1.4-.5 0-1-.1-1.5-.3-1.7-.6-2.8-2.2-2.8-4 0-.8.1-1.6.5-2.3.8-1.6 2.2-2.3 4-2.3zm-2.9 4.4c0 .2 0 .5.1.7.2 1.1.9 1.9 2 2.2 1.2.3 2.2.1 3-.8.8-.9 1-2 .6-3.1-.5-1.5-2-2.3-3.6-1.9-.7.2-1.3.6-1.6 1.3-.4.5-.5 1-.5 1.6zM78.7 106.3v-3.6c0-.6 0-.7.7-.7h2.5c.5 0 1 0 1.6.2 3.3 1 3.9 4.6 2.2 6.8-.6.8-1.4 1.2-2.4 1.5-.3.1-.6.1-.9.1h-3.5c-.1 0-.2-.1-.2-.2v-4.1zm1.6.1v2.6c0 .2.1.3.3.3.6 0 1.2.1 1.8 0 1.4-.2 2.3-.9 2.6-2.4.3-1.5-.6-2.9-2.1-3.3-.7-.2-1.5-.1-2.3-.1-.2 0-.2.1-.3.3v2.6zM177.1 105.8c-.1-.3-.3-.5-.4-.8-.2-.5-.3-1-.1-1.6.2-.7.7-1.2 1.4-1.4.6-.2 1.2-.2 1.9 0 .8.2 1.3.8 1.5 1.6.2.8-.1 1.5-.7 2-.2.2-.4.3-.7.4-.1.1-.2.2-.4.2.3.4.9 1 1.3 1.3.1-.1.2-.1.2-.2.2-.3.3-.6.5-.9.1-.1.2-.2.3-.4.4.1.7.3 1.1.6-.2.7-.7 1.3-1 1.9.3.5.9.8 1.2 1.4-.3.4-.6.6-1 .8-.5-.2-.7-.7-1.2-1-.2.1-.4.2-.6.4-1 .7-2.1.8-3.2.5-.7-.2-1.2-.6-1.5-1.3-.4-.9-.2-2.1.5-2.8.2-.2.4-.3.6-.5 0 0 .2-.1.3-.2zm2.8 3v-.1c-.5-.6-1.1-1.1-1.6-1.7-.1-.1-.3-.1-.5 0-.3.1-.5.4-.7.6-.4.7-.1 1.5.7 1.8.8.3 1.5 0 2.1-.6zm0-4.6c0-.5-.2-.8-.5-1-.6-.3-1.3.1-1.4.8-.1.5.1.9.5 1.3.1.1.3.1.4.1.3-.1.6-.3.8-.5.1-.3.2-.5.2-.7zM103.7 103.5c-.1.6 0 1.1-.1 1.6 0 .2 0 .3.1.5.2.1.4.1.6.1h3c.2 0 .4 0 .6.1.1.3.1.6 0 1 0 .2-.1.2-.2.3h-3.4c-.2 0-.4 0-.6.1 0 .1-.1.2-.1.2v1.6c0 .1.1.2.1.2.2.1.4.1.6.1h3.5c.2 0 .4 0 .7.1.1.4.2.8 0 1.2-.1 0-.2.1-.2.1h-6.1c-.2-.2-.1-.4-.1-.7V102.8c0-.7 0-.7.7-.7h5.2c.2 0 .4 0 .5.2.1.3.1.7 0 1.1-.2.2-.4.1-.6.1h-3.6c-.3-.1-.4-.1-.6 0zM125 102.2c.2-.2.4-.2.6-.2h5c.2 0 .5 0 .7.1.1.4.1.8 0 1.1-.2.1-.5.1-.7.1h-3.4c-.2 0-.5 0-.7.1 0 .1-.1.1-.1.2v1.6c0 .3.1.3.3.3h3.2c.2 0 .5 0 .7.1.1.3.1.7.1 1 0 .1-.1.2-.2.3h-3.4c-.7 0-.7 0-.7.7v1.2c0 .2.1.3.3.3h4c.6 0 .7 0 .7.7v.4c0 .2-.1.3-.3.3H125.5c-.7 0-.7 0-.7-.7v-7.2c.2 0 .2-.2.2-.4zM251.7 102.1c0 .3 0 .5.1.7v2c0 .2 0 .4.1.7.1 0 .2.1.3.1H255.9c.2-.2.1-.4.1-.7v-2.7c.2-.2.3-.2.5-.2.3 0 .6-.1.9.1.1.2.1.4.1.6V110.2c0 .2-.1.2-.3.2h-1.1c-.2-.2-.1-.4-.1-.5V107.1c0-.2-.1-.2-.3-.2H252.5c-.6 0-.6 0-.6.6v2.2c0 .2 0 .4-.1.7-.4.1-.8 0-1.2 0-.1 0-.2-.1-.2-.2v-7.9c0-.5.1-.5.5-.5h.7c-.1.3 0 .3.1.3zM214.4 110.6c-.1 0-.1.1-.2.1h-1c-.2 0-.4-.1-.5-.3-.1-.4-.3-.7-.5-1.1l-.3-.6h-3.8c-.2 0-.3.1-.4.2-.2.3-.3.7-.5 1-.1.3-.2.5-.3.7-.6.1-.9.1-1.4 0v-.3c.1-.2.1-.4.2-.6 1-2.3 2.1-4.7 3.1-7 .1-.2.2-.5.3-.7.4-.1.8-.1 1.2-.1.2 0 .3.1.4.2.1.1.1.2.2.4l3.3 7.5c.2.2.3.4.2.6zM210 104c-.1.2-.2.3-.2.4-.8 1.7-1 2.4-1.1 2.8.1 0 .2.1.3.1h2.2c.1 0 .2-.1.2-.1-.1-.5-1.1-2.7-1.4-3.2zM198.2 110.6c0-.1-.1-.3-.1-.4V102.3c0-.1.1-.2.3-.3h3.3c.5 0 1.1.1 1.6.4.7.4 1.2.9 1.4 1.8.1.6.1 1.1 0 1.7-.2.6-.5 1.1-1.1 1.5-.5.3-1 .5-1.6.6-.6 0-1.2.1-1.7.1-.7 0-.7 0-.7.7v1.5c0 .1 0 .3-.1.4-.4 0-.8 0-1.3-.1zm1.5-5.7v1.2c0 .3.1.4.4.4h1.6c.2 0 .5-.1.7-.2.6-.3.9-.8.9-1.5 0-.6-.4-1.1-1.1-1.3-.1 0-.3-.1-.4-.1H200c-.3 0-.3.1-.3.3v1.2zM76.6 110.6c-.4.1-.9.1-1.3 0-.1 0-.2-.1-.3-.3-.2-.4-.3-.7-.5-1.1-.3-.8-.2-.7-1.1-.7h-3.2c-.1.1-.2.3-.2.4-.1.3-.3.6-.4.9-.4.8-.3.7-1.1.7H68s-.1 0-.1-.1v-.2c0-.1.1-.3.2-.4 1-2.4 2.1-4.8 3.1-7.2 0-.1.1-.1.1-.2.3-.6.3-.6 1-.6h.2c.4 0 .6.1.8.5 1.1 2.5 2.2 5.1 3.3 7.6-.1.3 0 .5 0 .7zm-3-3.5c-.4-1.1-.8-2-1.3-3 0-.1-.1-.1-.2-.1-.2.3-.3.7-.5 1-.2.3-.3.7-.4 1-.1.3-.3.7-.4 1 .3.1 1.1.2 2.3.1.2.1.3.1.5 0zM56.4 110.6c-.5.1-1 .1-1.5 0-.1-.2-.2-.3-.3-.5-.1-.3-.3-.6-.4-1-.2-.6-.2-.6-.9-.6H49.9l-.3.6c-.2.4-.3.7-.5 1.1-.1.3-.3.4-.6.4h-1v-.3c0-.2.1-.3.2-.5 1.1-2.4 2.1-4.8 3.2-7.2.1-.2.1-.3.3-.5.1-.1.2-.2.3-.2h1c.1 0 .2.1.3.2.1.1.1.3.2.4 1.1 2.4 2.1 4.9 3.2 7.3.1.3.3.5.2.8zm-3-3.5c-.3-1-.8-1.9-1.2-2.8 0-.1-.1-.1-.2-.2-.1.1-.1.2-.2.3-.7 1.5-1.1 2.4-1.1 2.8l.1.1h2.4c0-.1.1-.1.2-.2zM40.2 102.2c.2-.2.3-.2.5-.2h3.1c.4 0 .9.1 1.3.3 1.3.5 1.9 1.7 1.7 3.1-.2 1-.7 1.7-1.6 2.2-.4.2-.7.3-1.1.3-.5 0-1 .1-1.5.1h-.4c-.5 0-.6.1-.6.6v1.9c0 .1-.1.2-.2.2-.4 0-.8.1-1.2 0 0-.1-.1-.2-.1-.3V103c.1-.4.1-.6.1-.8zm1.5 1.3c0 .2-.1.4-.1.5v2.1c0 .3.1.3.4.4h1.6c.3 0 .7-.1.9-.3.5-.3.7-.8.6-1.4-.1-.6-.3-1-.9-1.2-.2-.1-.5-.1-.8-.2h-1.5c.1 0 0 .1-.2.1zM139.7 103.1c-.2.3-.5.6-.7.9-.3.1-.4-.1-.6-.2-.5-.3-1-.5-1.5-.6-.4-.1-.9 0-1.2.2-.3.2-.5.5-.5.9s.2.6.5.8l.6.3c.5.2 1 .3 1.5.4.4.1.8.3 1.2.5.7.4 1 1 1 1.8 0 1.2-.5 2-1.6 2.4-.4.2-.8.2-1.2.2-1.3.1-2.4-.2-3.4-1-.2-.1-.4-.2-.4-.5.1-.2.2-.3.4-.5.1-.2.3-.3.4-.5.3.1.4.2.6.4.6.4 1.2.6 1.9.7.4 0 .7 0 1-.2.2-.1.4-.2.5-.4.4-.4.3-1-.2-1.3-.2-.1-.4-.2-.7-.3-.5-.2-1.1-.3-1.6-.5-.4-.1-.8-.3-1.2-.5-.6-.4-1-1-1-1.7 0-1.2.5-2 1.6-2.5.3-.1.5-.2.8-.2 1.2-.1 2.3.1 3.3.7.3.4.5.5.5.7zM226.8 103.1c-.2.3-.4.6-.7.9-.3.1-.4-.1-.6-.2-.5-.3-.9-.4-1.5-.6-.4-.1-.7-.1-1 .1-.2.1-.3.1-.4.2-.5.4-.5 1.1.1 1.5.2.1.5.2.7.3.6.2 1.2.4 1.8.5.4.1.8.3 1.1.6.5.4.8.9.8 1.5 0 .3 0 .6-.1.9-.1.6-.5 1.1-1.1 1.4-.5.3-1 .4-1.6.5-1.3.1-2.4-.2-3.4-.9-.1-.1-.3-.2-.4-.3 0 0-.1-.1-.1-.2.3-.3.5-.7.9-1 .2.1.4.3.6.4.6.4 1.2.6 1.8.6.4 0 .7 0 1.1-.2.2-.1.4-.2.5-.5.2-.4.1-.9-.2-1.2-.2-.1-.5-.3-.7-.3-.5-.2-1-.3-1.6-.5-.3-.1-.6-.2-.9-.4-1.1-.5-1.4-1.5-1.2-2.6.1-.7.5-1.2 1.1-1.5.4-.3.9-.4 1.4-.5 1.1-.1 2.2.1 3.1.7.2.4.4.5.5.8zM93 109.4c.3-.4.5-.8.9-1 .2.1.4.3.6.4.6.4 1.2.6 1.8.6.4 0 .7 0 1.1-.2.2-.1.4-.3.6-.5.2-.4.1-.8-.2-1.1l-.6-.3c-.4-.2-.9-.3-1.3-.4-.4-.1-.9-.3-1.3-.4-1.8-.7-1.6-3.2-.4-4 .3-.2.7-.4 1.1-.5 1.3-.2 2.5 0 3.6.7.1.1.2.1.3.2 0 0 .1.1.1.2-.2.4-.4.7-.7 1-.2 0-.4-.1-.5-.2-.5-.3-1-.5-1.5-.6-.4-.1-.9 0-1.2.2-.4.2-.6.5-.5 1 0 .3.1.5.4.6.2.1.5.3.7.3.5.2 1 .3 1.6.5.3.1.7.2 1 .4 1.7.8 1.4 3 .5 3.8-.4.4-.9.6-1.4.7-1.1.2-2.2.1-3.3-.4-.4-.2-.7-.4-1-.7-.3-.1-.3-.2-.4-.3zM189.1 109.4c.2-.4.5-.7.8-.9.2.1.4.2.6.4.6.4 1.2.6 1.9.7.5 0 .9 0 1.3-.3.3-.2.5-.4.5-.8s-.1-.7-.5-.8c-.3-.2-.6-.3-1-.4-.5-.2-1-.3-1.6-.5-.3-.1-.7-.3-1-.5-.5-.3-.8-.8-.8-1.5v-.2c0-1.3.7-2.2 1.9-2.5 1.4-.3 2.7-.1 3.9.8.1 0 .1.1.1.2-.2.5-.3.8-.8 1.1-.1-.1-.2-.1-.4-.2-.5-.3-1-.5-1.6-.6-.4-.1-.8 0-1.1.2-.4.2-.6.4-.6.8s.2.7.5.9c.2.1.4.2.6.2.5.2 1 .3 1.6.5.3.1.7.2 1 .4 1.7.8 1.5 3.2.2 4-.4.2-.8.4-1.2.5-1.4.2-2.8-.1-4-.9-.1-.3-.2-.4-.3-.6zM247.1 108.4c.3.3.6.5.9.9-.1.1-.1.2-.2.3-.7.7-1.5 1.1-2.5 1.2-.6.1-1.3.1-1.9-.1-1.6-.4-3-1.7-3.3-3.8-.1-.8 0-1.5.3-2.2.7-1.7 2-2.6 3.9-2.8.7 0 1.3 0 1.9.2.6.2 1.1.5 1.5.9l.2.2c-.2.4-.5.8-.9 1.1-.3-.1-.4-.2-.6-.4-.6-.4-1.2-.6-1.8-.6-1.1 0-1.9.5-2.4 1.4-.5.9-.6 1.9-.2 2.9.6 1.5 2.2 2.2 3.7 1.7.3-.1.6-.3.9-.5.1-.2.3-.4.5-.4zM166.6 110.6c-.5.1-.9.1-1.3 0-.2-.3-.1-.5-.1-.8v-6c0-.2-.1-.3-.3-.3H162.7c-.1 0-.1 0-.2-.1-.1-.4 0-.8 0-1.2.1 0 .2-.1.3-.1h5.9c.8 0 .8 0 .8.8v.2c0 .3-.1.4-.4.4H167.2c-.4 0-.4.1-.5.5v6c0 .1 0 .4-.1.6zM90.6 110.6c-.5.1-1 .1-1.4 0 0-.1-.1-.2-.1-.3v-8c.1 0 .3-.1.4-.1h.8c.2 0 .3.1.3.3v7.5c.1.1 0 .3 0 .6zM260.4 102.1c.4-.1.8-.1 1.2-.1.2 0 .3.1.3.3v8.1c0 .1-.1.2-.2.2h-1c-.1 0-.2-.1-.2-.2v-7.7c-.1-.2-.1-.4-.1-.6z"/></svg>