<svg version="1.1" id="Слой_1" xmlns="http://www.w3.org/2000/svg" x="0" y="0" viewBox="0 0 300 150" style="enable-background:new 0 0 300 150" xml:space="preserve"><style>.st0{fill-rule:evenodd;clip-rule:evenodd;fill:#384047}</style><path class="st0" d="M49.3 89.7h6.2V77.6h16.4v-5.7H55.5V63h17.4v-6H49.3v32.7zm182.5-46.4c-4 0-7.8-1.6-9.3-5.2l-5.2 2.7c2.4 6 7.6 8.1 14.3 8.1 7.3 0 13.8-3.1 13.8-10.5 0-7.8-6.4-9.6-13.2-10.5-3.9-.5-7.3-1.3-7.3-4.1 0-2.4 2.2-4.4 6.8-4.4 3.6 0 6.7 1.8 7.8 3.7l4.9-2.5c-2.5-5.1-7.8-6.5-12.9-6.5-6.1 0-12.7 2.8-12.7 9.6 0 7.4 6.2 9.1 12.9 10 4.4.5 7.6 1.7 7.6 4.8 0 3.5-3.6 4.8-7.5 4.8m-33.1 5.4c8.3 0 14.2-5 14.2-14.7V15.2h-6.1V34c0 5.6-2.9 9.1-8 9.1s-8.5-3.2-8.5-9.1V15.2h-6.1V34c-.1 9.9 6.6 14.7 14.5 14.7m-30.3 0c2.3.1 4.6-.3 6.7-1.2 2.1-.8 4.1-2.1 5.8-3.7l-4.2-4.3c-2.2 2.1-5.2 3.3-8.3 3.3-8.1 0-11.3-5.7-11.3-11.1 0-5.4 3.4-11.4 11.3-11.4 2.9 0 5.8 1.1 7.9 3.1l4.1-4c-1.6-1.6-3.5-2.9-5.5-3.7s-4.3-1.3-6.5-1.3c-11.9 0-17.5 8.7-17.4 17.3s5.2 17 17.4 17m-38.1-28.6c7.7 0 10.8 6.2 10.7 11.7-.1 5.4-3 11.2-10.7 11.2s-10.7-5.8-10.8-11.2c-.1-5.5 3-11.7 10.8-11.7zm0 28.6c11.5 0 16.8-8.5 16.9-17s-5.5-17.3-16.9-17.3-16.9 8.7-16.9 17.3 5.3 17 16.9 17M89.2 31.4V20.9h9.4c3.9 0 5.6 2.6 5.6 5.3 0 2.6-1.7 5.3-5.6 5.3l-9.4-.1zM112.1 48v-.4l-10-11.2c6.2-1.3 8.3-5.8 8.3-10.4 0-5.7-4.1-10.8-11.8-10.9H83V48h6.2V37h6l9.6 11h7.3zm-45.4.7c2.3.1 4.6-.3 6.7-1.2 2.1-.8 4.1-2.1 5.8-3.7L75 39.6c-2.2 2.1-5.2 3.3-8.3 3.3-8.1 0-11.3-5.7-11.3-11.1 0-5.4 3.4-11.4 11.3-11.4 2.9 0 5.8 1.1 7.9 3.1l4.1-4c-1.6-1.6-3.5-2.9-5.5-3.7-2.1-.9-4.3-1.3-6.5-1.3-11.9 0-17.5 8.7-17.4 17.3.1 8.6 5.2 16.9 17.4 16.9"/><path style="fill-rule:evenodd;clip-rule:evenodd;fill:#da251d" d="M89.9 57H78.7v5.6h5.1v21.9h-5v5.2h15.6v-5.2h-4.5z"/><path class="st0" d="M172.3 119.5v19.3h5.6v-27.4l-5.6 8.1zm0-4.1 5.6-8v-.7h-5.3l-16.3 23.5v-23.5h-5.6v32.2h5.3l16.3-23.5zm43.8 7.4c0-9.1 6.8-16.6 16.6-16.6 5.9 0 9.5 2.1 12.6 5l-3.7 4.2c-2.6-2.4-5.3-4-9-4-6.1 0-10.6 5.1-10.6 11.4 0 6.3 4.5 11.4 10.6 11.4 4 0 6.5-1.6 9.2-4.2l3.7 3.7c-3.4 3.5-7 5.7-13 5.7-9.4 0-16.4-7.3-16.4-16.6zm-30.7 14.9 2.2-4.2c1.2.7 2.6 1 3.9 1 1.4 0 3.4-.9 5.1-3.5l-13.4-24.3h6.3l10 18.7 8.8-18.7h6.1l-12.5 25.1c-2.7 5.5-6 7.5-10.2 7.5-2.2.1-4.3-.5-6.3-1.6zm-53.1-14.3c4.3 0 6.9-2.4 6.9-5.8 0-3.8-2.7-5.7-6.9-5.7h-6.5v11.6l6.5-.1zm-12.2-16.7h12.7c7.5 0 12.2 4.3 12.2 10.8 0 7.2-5.8 11-12.9 11h-6.4v10.4h-5.6v-32.2zm-35.4 0h5.6v23.5l16.3-23.5h5.3v32.2h-5.6v-23.4L90 138.8h-5.3v-32.1zm-35.4 16.1c0-9.1 6.8-16.6 16.6-16.6 5.9 0 9.5 2.1 12.6 5l-3.6 4.2c-2.6-2.4-5.3-4-9-4-6.1 0-10.6 5.1-10.6 11.4 0 6.3 4.5 11.4 10.6 11.4 4 0 6.5-1.6 9.2-4.2l3.7 3.7c-3.4 3.5-7 5.7-13 5.7-9.5 0-16.5-7.3-16.5-16.6zM181.9 63v-6H161v32.7h20.8v-6.1h-14.7v-7.4h14.7v-5.8h-14.7V63h14.8zm50.4 6.7c-3.9-.5-7.3-1.3-7.3-4.1 0-2.4 2.2-4.4 6.8-4.4 3.6 0 6.6 1.8 7.8 3.7l4.9-2.5c-2.5-5.1-7.8-6.5-12.9-6.5-6 0-12.7 2.8-12.7 9.5 0 7.3 6.2 9.1 12.9 9.9 4.4.5 7.6 1.7 7.6 4.8 0 3.6-3.7 4.9-7.5 4.9-3.9 0-7.8-1.6-9.2-5.2l-5.1 2.7c2.4 6 7.6 8 14.3 8 7.3 0 13.7-3.1 13.7-10.4-.1-7.7-6.5-9.5-13.3-10.4m-31.1 0c-3.9-.5-7.3-1.3-7.3-4.1 0-2.4 2.2-4.4 6.8-4.4 3.6 0 6.6 1.8 7.8 3.7l4.9-2.5c-2.5-5.1-7.7-6.5-12.8-6.5-6 0-12.7 2.8-12.7 9.5 0 7.3 6.2 9.1 12.9 9.9 4.4.5 7.6 1.7 7.6 4.8 0 3.6-3.7 4.9-7.5 4.9s-7.8-1.6-9.2-5.2l-5.1 2.6v.1c2.4 5.9 7.6 8 14.2 8 7.3 0 13.7-3.1 13.7-10.4-.1-7.8-6.4-9.5-13.3-10.4M128.1 57v32.7h6.2v-22l17.2 22.1h3.8v-4.6L133.1 57h-5zm27.2 0h-6.2v14l6.2 7.8V57zm-58.5 5.6h10.4v27.1h6.2V62.6h10.4V57h-27v5.6z"/></svg>