<svg version="1.1" id="Слой_1" xmlns="http://www.w3.org/2000/svg" x="0" y="0" viewBox="0 0 300 150" style="enable-background:new 0 0 300 150" xml:space="preserve"><path d="M264.2 79.6c-2-1-3.7-2.6-4.8-4.5-1.2-1.9-1.7-4.1-1.7-6.4 0-2.2.5-4.4 1.7-6.4s2.8-3.5 4.8-4.5c2.1-1.1 4.5-1.6 6.9-1.6 2.5 0 4.8.5 6.7 1.6 1.9 1 3.3 2.6 4.2 4.6l-5.4 2.9c-1.3-2.2-3.1-3.3-5.4-3.3-.8 0-1.7.1-2.5.4-.8.3-1.5.8-2.1 1.4-1.2 1.2-1.8 2.8-1.8 4.9s.6 3.7 1.8 4.9c.6.6 1.3 1.1 2.1 1.4s1.6.5 2.5.4c2.4 0 4.2-1.1 5.4-3.3l5.4 3c-.9 1.9-2.3 3.5-4.2 4.5-1.9 1.1-4.1 1.6-6.7 1.6-2.4.1-4.7-.5-6.9-1.6zm-8.1-22.9-10.9 25.6c-1.1 2.8-2.5 4.7-4.1 5.9-1.6 1.1-3.6 1.7-5.9 1.7-1.3 0-2.5-.2-3.7-.6-1.1-.3-2.1-.9-3-1.6l2.6-5c.5.5 1.2.9 1.9 1.1.7.3 1.4.4 2.1.4.8 0 1.7-.2 2.3-.7.6-.5 1.1-1.2 1.6-2.3l.1-.2-10.5-24.3h7.2l6.8 16.4 6.8-16.4h6.7zm-56.3 0h7V71l11.7-14.3h6.4v24.1h-7V66.5l-11.7 14.3h-6.5V56.7zm-13.9 17c1.2-1.2 1.7-2.8 1.7-4.9s-.6-3.7-1.7-4.9c-1.2-1.2-2.8-1.8-4.4-1.8-1.7 0-3.2.7-4.4 1.8-1.2 1.2-1.7 2.8-1.7 4.9s.6 3.7 1.7 4.9c1.2 1.2 2.8 1.8 4.4 1.8 1.7 0 3.2-.7 4.4-1.8zm2.9-15.8c1.8 1 3.3 2.5 4.3 4.3 1 1.9 1.6 4 1.6 6.5s-.5 4.7-1.6 6.5c-1 1.8-2.5 3.3-4.3 4.4-1.9 1-4 1.6-6.1 1.5-3.1 0-5.5-1-7.3-2.9v11.3h-7V56.7h6.7v2.8c1.7-2.1 4.3-3.1 7.6-3.1 2.1 0 4.3.5 6.1 1.5zm-52.4-1.2h7V71l11.8-14.3h6.4v24.1h-7V66.5l-11.7 14.3h-6.5V56.7zm-26.1 22.6c-2.5-1.3-4.6-3.3-6.1-5.8s-2.3-5.4-2.2-8.4c0-2.9.7-5.8 2.2-8.4 1.5-2.5 3.6-4.5 6.1-5.8 2.7-1.4 5.7-2.1 8.7-2.1 2.5 0 5 .5 7.4 1.4 2.2.9 4.1 2.3 5.5 4.1l-4.7 4.3c-2.1-2.4-4.8-3.7-7.9-3.7-1.8 0-3.6.4-5.2 1.3-1.5.8-2.7 2.1-3.6 3.6-.9 1.6-1.3 3.4-1.3 5.2 0 1.8.4 3.6 1.3 5.2.8 1.5 2.1 2.7 3.6 3.6 1.6.9 3.4 1.3 5.2 1.3 3.1 0 5.8-1.2 7.9-3.7l4.7 4.3c-1.5 1.8-3.4 3.3-5.6 4.2-2.3 1-4.9 1.5-7.4 1.4-2.9.2-5.9-.6-8.6-2z" style="fill-rule:evenodd;clip-rule:evenodd;fill:#313332"/><path d="M281.4 98.9h2v-3h-1.9c-1.3 0-1.9.5-1.9 1.5-.1 1 .5 1.5 1.8 1.5zm2.8-3.8v6.6h-.8v-2.2h-2.3l-1.5 2.2h-1l1.7-2.3c-.5-.1-.9-.4-1.2-.7-.3-.5-.5-1-.4-1.6.1-.6.3-1.1.7-1.4.6-.4 1.3-.6 2.1-.6h2.7zm-14.1 0h.9v5.3l4.4-5.3h.8v6.6h-.9v-5.3l-4.4 5.3h-.8v-6.6zm-4.3 5.6c.4-.2.7-.5.9-.9.2-.4.3-.9.3-1.3 0-.5-.1-.9-.3-1.3-.2-.4-.5-.7-.9-.9-.4-.2-.8-.3-1.3-.3s-.9.1-1.3.3c-.4.2-.7.5-.9.9-.2.4-.3.9-.3 1.3 0 .5.1.9.3 1.3.2.4.5.7.9.9.4.2.8.3 1.3.3s.9-.1 1.3-.3zm.5-5.2c.5.3.9.7 1.2 1.2.3.5.4 1.1.4 1.8 0 .6-.1 1.2-.4 1.8-.3.5-.7.9-1.2 1.2-.5.3-1.1.4-1.7.4-.5 0-1-.1-1.5-.3-.4-.2-.8-.6-1.1-1v3.7h-.9v-9.1h.9v1.3c.3-.4.6-.8 1.1-1 .5-.2 1-.4 1.5-.4.6-.1 1.2.1 1.7.4zm-9.4 5.2c.4-.2.7-.5.9-.9.2-.4.3-.9.3-1.3s-.1-.9-.3-1.3c-.2-.4-.5-.7-.9-.9-.4-.2-.8-.3-1.3-.3s-.9.1-1.3.3c-.4.2-.7.5-.9.9-.2.4-.3.9-.3 1.3s.1.9.3 1.3c.2.4.5.7.9.9.4.2.8.3 1.3.3s.9-.1 1.3-.3zm-3 .7c-.5-.3-.9-.7-1.2-1.2-.3-.5-.4-1.1-.4-1.7s.2-1.2.4-1.7c.3-.5.7-.9 1.2-1.2.5-.3 1.1-.4 1.7-.4.6 0 1.2.1 1.7.4.5.3.9.7 1.2 1.2.3.5.4 1.1.4 1.7s-.1 1.2-.4 1.7c-.3.5-.7.9-1.2 1.2-.5.3-1.1.4-1.7.4-.6 0-1.2-.2-1.7-.4zm-2.3-5.5h-2.5v5.8h-.9v-5.8h-2.5v-.8h5.9v.8zm-13.7-.8h.9v5.3l4.4-5.3h.8v6.6h-.9v-5.3l-4.4 5.3h-.8v-6.6zm-4.3 5.6c.4-.2.7-.5.9-.9.2-.4.3-.9.3-1.3 0-.5-.1-.9-.3-1.3-.2-.4-.5-.7-.9-.9-.4-.2-.8-.3-1.3-.3-.4 0-.9.1-1.3.3-.4.2-.7.5-.9.9-.2.4-.3.9-.3 1.3 0 .5.1.9.3 1.3.2.4.5.7.9.9.4.2.8.3 1.3.3s.9-.1 1.3-.3zm.5-5.2c.5.3.9.7 1.2 1.2.3.5.4 1.1.4 1.8 0 .6-.1 1.2-.4 1.8-.3.5-.7.9-1.2 1.2-.5.3-1.1.4-1.7.4-.5 0-1-.1-1.5-.3-.4-.2-.8-.6-1.1-1v3.7h-.8v-9.1h.9v1.3c.3-.4.6-.8 1.1-1 .5-.2 1-.4 1.5-.4s1.1.1 1.6.4zm-9.5 5.2c.4-.2.7-.5.9-.9.2-.4.3-.9.3-1.3 0-.5-.1-.9-.3-1.3-.2-.4-.5-.7-.9-.9-.4-.2-.8-.3-1.3-.3s-.9.1-1.3.3c-.4.2-.7.5-.9.9-.2.4-.3.9-.3 1.3 0 .5.1.9.3 1.3.2.4.5.7.9.9.4.2.8.3 1.3.3s.9-.1 1.3-.3zm.5-5.2c.5.3.9.7 1.2 1.2.3.5.4 1.1.4 1.8s-.1 1.2-.4 1.8c-.3.5-.7.9-1.2 1.2-.5.3-1.1.4-1.7.4-.5 0-1-.1-1.5-.3-.4-.2-.8-.6-1.1-1v3.7h-.8v-9.1h.9v1.3c.3-.4.6-.8 1.1-1 .5-.2 1-.4 1.5-.4s1.1.1 1.6.4zm-12.2.9c-.4.4-.7 1-.7 1.6h4.7c0-.6-.3-1.2-.7-1.6-.4-.4-1-.6-1.6-.6s-1.2.2-1.7.6zm4.8 2.3h-5.5c0 .3.1.6.2.9s.3.5.6.8c.5.4 1.2.7 1.8.6.4 0 .8-.1 1.1-.2.3-.1.6-.4.9-.6l.5.6c-.3.4-.7.6-1.1.8-.5.2-1 .3-1.5.3-.6 0-1.3-.1-1.8-.4-.5-.3-.9-.7-1.2-1.2-.3-.5-.4-1.1-.4-1.7 0-.6.1-1.2.4-1.7.3-.5.7-.9 1.2-1.2.5-.3 1.1-.4 1.7-.4.6 0 1.1.1 1.7.4.5.3.9.7 1.1 1.2.3.5.4 1.1.4 1.8h-.1zm-7.1-2.8h-2.5v5.8h-.9v-5.8h-2.5v-.8h5.9v.8zM188.9 99h2v-3H189c-1.3 0-1.9.5-1.9 1.5-.1 1.1.5 1.5 1.8 1.5zm2.8-3.7v6.6h-.8v-2.2h-2.3l-1.5 2.2h-1l1.7-2.3c-.5-.1-.9-.4-1.2-.7-.3-.5-.5-1-.4-1.6s.3-1.1.7-1.4c.6-.4 1.3-.6 2.1-.6h2.7zm-9.5 5.6c.4-.2.6-.6.8-1v-1.1h-2.1c-1.1 0-1.7.4-1.7 1.2 0 .2 0 .4.1.5.1.2.2.3.3.4.4.2.8.4 1.2.3.6.1 1 0 1.4-.3zm1-5c.5.4.7 1.1.7 1.9v4.1h-.9v-1c-.2.3-.5.6-.9.8-.4.2-.9.3-1.4.3-.6 0-1.2-.2-1.8-.5-.2-.2-.4-.4-.5-.6-.1-.2-.2-.5-.2-.8 0-.3 0-.5.1-.7.1-.2.3-.4.5-.6.4-.3 1.1-.5 1.9-.5h2.1v-.4c0-.2 0-.5-.1-.7-.1-.2-.2-.4-.4-.6-.4-.3-.9-.5-1.4-.4-.4 0-.8.1-1.2.2-.4.1-.7.3-1 .6l-.4-.7c.4-.3.8-.5 1.2-.7.5-.2 1-.2 1.5-.2 1.1-.2 1.7 0 2.2.5zm-13.1-.6h.9v2.9h4.2v-2.9h.9v6.6h-.9V99H171v2.9h-.9v-6.6zm-3.4 5.6c.2-.1.3-.3.4-.5.1-.2.1-.4.1-.6 0-.2 0-.4-.1-.6-.1-.2-.2-.4-.4-.5-.4-.3-.9-.4-1.4-.4h-1.7v2.9h1.7c.5.1 1-.1 1.4-.3zm.8-2.7c.2.2.4.4.5.7s.2.6.1.9c0 .3 0 .6-.2.9s-.3.5-.5.7c-.5.4-1.1.6-2 .6h-2.7v-6.6h.9v2.3h2c.8-.1 1.4.1 1.9.5zm-7.6-2.9v6.6h-.9v-5.8h-3.2l-.1 1.6c0 1.1-.2 2.1-.5 3.2-.3.7-.7 1.1-1.3 1.1-.2 0-.4 0-.6-.1l.1-.8h.3c.2 0 .3 0 .5-.1.1-.1.2-.2.3-.4.2-.4.3-.8.4-1.2.1-.5.1-1.1.2-1.9l.1-2.4h4.7zm-9.8 5.6c.4-.2.7-.6.8-1v-1.1h-2.1c-1.1 0-1.7.4-1.7 1.2 0 .2 0 .4.1.5.1.2.2.3.3.4.4.2.8.4 1.2.3.5.1 1 0 1.4-.3zm1-5c.5.4.7 1.1.7 1.9v4.1h-.9v-1c-.2.3-.5.6-.9.8-.4.2-.9.3-1.4.3-.6 0-1.2-.2-1.8-.5-.2-.2-.4-.4-.5-.6-.1-.2-.2-.5-.2-.8 0-.3 0-.5.1-.7.1-.2.3-.4.5-.6.4-.3 1.1-.5 1.9-.5h2.1v-.4c0-.2 0-.5-.1-.7-.1-.2-.2-.4-.4-.6-.4-.3-.9-.5-1.4-.4-.4 0-.8.1-1.2.2-.4.1-.7.3-1 .6l-.4-.7c.4-.3.8-.5 1.2-.7.5-.2 1-.2 1.5-.2 1-.2 1.7 0 2.2.5zm-8.6 5c.4-.2.7-.5.9-.9.2-.4.3-.9.3-1.3 0-.5-.1-.9-.3-1.3-.2-.4-.5-.7-.9-.9-.4-.2-.8-.3-1.3-.3s-.9.1-1.3.3c-.4.2-.7.5-.9.9-.2.4-.3.9-.3 1.3 0 .5.1.9.3 1.3.2.4.5.7.9.9.4.2.8.3 1.3.3s.9-.1 1.3-.3zm.5-5.2c.5.3.9.7 1.2 1.2.3.5.4 1.1.4 1.8 0 .6-.1 1.2-.4 1.8-.3.5-.7.9-1.2 1.2-.5.3-1.1.4-1.7.4-.5 0-1-.1-1.5-.3-.4-.2-.8-.6-1.1-1v3.7h-.9v-9.1h.9v1.3c.3-.4.6-.8 1.1-1 .5-.2 1-.4 1.5-.4.6-.1 1.2.1 1.7.4zm-12.2.9c-.4.4-.7 1-.7 1.6h4.7c0-.6-.3-1.2-.7-1.6-.4-.4-1-.6-1.6-.6s-1.3.2-1.7.6zm4.8 2.3H130c0 .3.1.6.2.9.1.3.3.5.6.8.5.4 1.2.7 1.8.6.4 0 .8-.1 1.1-.2.3-.1.6-.4.9-.6l.5.6c-.3.4-.7.6-1.1.8-.5.2-1 .3-1.5.3-.6 0-1.3-.1-1.8-.4-.5-.3-.9-.7-1.2-1.2-.3-.5-.5-1.1-.4-1.8 0-.6.1-1.2.4-1.7.3-.5.7-.9 1.2-1.2.5-.3 1.1-.4 1.7-.4.6 0 1.1.1 1.7.4.5.3.9.7 1.1 1.2.3.5.4 1.1.4 1.8v.1zm-13.3 1c0 .5-.3.9-.6 1.3h4.1v-5h-3.2l-.1 1.5c0 .6 0 1.4-.2 2.2zm5.4 1.2v2.4h-.8v-1.6H121v1.6h-.8v-2.4h.4c.4 0 .7-.4.9-1 .2-.9.3-1.8.3-2.6l.1-2.2h4.9v5.8h.9zm-13.4-4.5c-.4.4-.7 1-.7 1.6h4.7c0-.6-.3-1.2-.7-1.6-.4-.4-1-.6-1.6-.6-.7 0-1.2.2-1.7.6zm4.8 2.3h-5.5c0 .3.1.6.2.9.1.3.3.5.6.8.5.4 1.2.7 1.8.6.4 0 .8-.1 1.1-.2.3-.1.6-.4.9-.6l.5.6c-.3.4-.7.6-1.1.8-.5.2-1 .3-1.5.3-.6 0-1.2-.1-1.8-.4-.5-.3-.9-.7-1.2-1.2-.3-.5-.5-1.1-.4-1.8 0-.6.1-1.2.4-1.7.3-.5.7-.9 1.2-1.2.5-.3 1.1-.4 1.7-.4.6 0 1.1.1 1.7.4.5.3.9.7 1.1 1.2.3.5.4 1.1.4 1.8l-.1.1zm-9.6 1.5c.3-.2.5-.5.6-.8.1-.3.2-.7.2-1 0-.3 0-.7-.2-1s-.3-.6-.6-.8c-.5-.4-1.3-.7-2.2-.7v5.2c.9-.2 1.7-.4 2.2-.9zm-5.4 0c.5.4 1.3.7 2.2.8V96c-1 .1-1.7.3-2.2.7-.3.2-.5.5-.6.8-.1.3-.2.7-.2 1 0 .3 0 .7.2 1 .2.4.4.7.6.9zm6 .6c-.7.6-1.6.9-2.9 1v2.4h-.9V102c-1.2-.1-2.2-.4-2.9-1-.3-.3-.6-.7-.8-1.1-.2-.4-.3-.9-.2-1.3 0-.5.1-.9.2-1.3.2-.4.4-.8.8-1.1.7-.6 1.6-.9 2.9-.9v-2.7h.9v2.7c1.2.1 2.2.4 2.9 1 .3.3.6.7.8 1.1.2.4.3.9.2 1.3 0 .5-.1.9-.2 1.3-.2.3-.5.7-.8 1z" style="fill-rule:evenodd;clip-rule:evenodd;fill:#777c79"/><path d="m76.6 59.1-11 11c-.1.1-.2.3-.2.5v.5c1.3 3.1 1.5 6.5.5 9.7-.9 3.2-3 5.9-5.7 7.8-2.8 1.9-6.1 2.7-9.4 2.4s-6.4-1.7-8.8-4.1c-2.4-2.3-3.9-5.4-4.2-8.7-.4-3.3.5-6.6 2.3-9.4 1.8-2.8 4.6-4.8 7.7-5.8 3.2-1 6.6-.9 9.7.4.2.1.3.1.5 0 .2 0 .3-.1.4-.2L69.5 52c.2-.2.3-.4.4-.7.1-.3.1-.5.1-.8 0-.3-.1-.5-.3-.8-.1-.2-.3-.4-.6-.6-5.3-3.3-11.5-5-17.8-4.9-17.1.4-31 14.2-31.5 31.2-.1 4.4.6 8.8 2.2 12.9s4.1 7.8 7.2 11 6.9 5.6 11 7.2 8.5 2.4 12.9 2.2c17.1-.5 30.9-14.5 31.2-31.6.1-6.3-1.6-12.6-5-17.9-.1-.2-.3-.4-.6-.6-.2-.1-.5-.2-.8-.3-.3 0-.5 0-.8.1s-.3.5-.5.7z" style="fill-rule:evenodd;clip-rule:evenodd;fill:#58a937"/></svg>