<svg width="170" height="53" viewBox="0 0 170 53" fill="none" xmlns="http://www.w3.org/2000/svg">
<g clip-path="url(#clip0_372_4646)">
<path fill-rule="evenodd" clip-rule="evenodd" d="M13.1669 11.2777H3.59717L4.16971 12.9954H13.7394V11.7685C13.7394 11.6049 13.6576 11.5231 13.5758 11.3595C13.4122 11.2777 13.3304 11.2777 13.1669 11.2777ZM79.9093 45.3851C76.3923 49.1475 70.6668 51.1923 63.9598 51.1923H43.6754V52.91H65.6775C70.994 52.91 75.6561 51.6013 79.1732 49.1475L80.2365 45.3851C80.3183 45.2215 80.3183 45.2215 80.3183 45.0579V44.9761C80.1547 45.2215 79.9911 45.3033 79.9093 45.3851ZM59.952 40.0686V30.0899C59.952 29.9264 60.0338 29.8446 60.1156 29.681C60.2792 29.5174 60.361 29.5174 60.5246 29.5174H62.7329C64.2052 29.5174 65.4321 29.8446 66.4136 30.4171C66.4136 30.3353 66.3318 30.3353 66.3318 30.2535C66.25 30.0899 66.1682 30.0081 66.0864 29.8446C66.0046 29.7628 66.0046 29.681 65.9228 29.681C65.8411 29.5174 65.6775 29.3538 65.5139 29.272L65.3503 29.1084C65.2685 29.0266 65.1867 28.9448 65.0231 28.8631C64.8595 28.7813 64.8595 28.6995 64.7778 28.6995C64.696 28.6995 64.6142 28.5359 64.4506 28.5359C64.287 28.4541 64.287 28.3723 64.1234 28.3723C63.9598 28.3723 63.9598 28.2905 63.7962 28.2087C63.5509 28.1269 63.3873 28.0451 63.1419 27.9633C63.0601 27.9633 62.9783 27.8815 62.8965 27.8815C62.7329 27.7998 62.5694 27.7998 62.4058 27.718H62.2422C62.0786 27.718 61.8332 27.6362 61.6697 27.6362C61.4243 27.6362 61.1789 27.5544 60.9335 27.5544H58.7251C58.5615 27.5544 58.4797 27.6362 58.3162 27.718C58.1526 27.9633 58.1526 28.0451 58.1526 28.2087V39.4143C58.1526 39.5778 58.2344 39.6596 58.3162 39.8232C58.398 39.905 58.4798 39.905 58.4798 39.9868C58.5615 39.9868 58.6433 40.0686 58.6433 40.0686H59.952ZM166.773 1.0537L154.749 34.4249C150.169 48.4114 145.916 51.2741 129.639 51.2741H112.217L112.544 52.9918H131.52C147.715 52.9918 151.968 50.129 156.549 36.1426L169.145 1.0537H166.773ZM109.518 43.2585L109.355 42.1134C109.355 42.0316 109.355 41.9498 109.273 41.9498L109.109 41.7862C109.027 41.7044 108.946 41.7044 108.864 41.7044H98.3944C98.3126 41.7044 98.2308 41.7044 98.149 41.7862L97.9854 41.9498C97.9854 42.0316 97.9036 42.1134 97.9036 42.1134L97.2493 46.203L96.4314 51.1923H80.8908L80.4001 52.91H98.0672L99.5395 43.7492C99.5395 43.5857 99.6212 43.5039 99.703 43.4221C99.7848 43.3403 99.8666 43.2585 100.03 43.2585H109.518ZM137.655 39.3325C137.818 39.1689 137.9 39.0053 138.064 38.9235C138.145 38.8417 138.145 38.7599 138.227 38.6781C138.309 38.5145 138.391 38.351 138.391 38.1874V38.0238C138.309 37.8602 138.227 37.8602 138.227 37.7784C138.145 37.6966 138.064 37.6966 137.9 37.6966H129.557L130.048 39.4143H137.491C137.573 39.4143 137.573 39.4143 137.655 39.3325ZM136.264 6.12482L140.681 26.6547V26.7365C140.681 26.9 140.763 26.9 140.845 27.0636C140.926 27.1454 141.008 27.2272 141.09 27.2272H141.172C141.253 27.2272 141.335 27.2272 141.417 27.1454C141.499 27.0636 141.581 27.0636 141.581 26.9818C141.662 26.9 141.662 26.9 141.662 26.8182L141.908 26.0821L136.591 1.0537H135.201C135.119 0.971906 136.264 6.12482 136.264 6.12482ZM119.415 18.7208L123.995 34.9975C124.159 35.4064 124.241 35.8972 124.322 36.3062C124.568 37.4512 124.895 38.5145 125.304 39.4143C125.631 40.0686 126.204 40.4776 126.776 40.7229C126.449 39.8232 126.122 39.0053 125.958 38.1056C125.795 37.6966 125.713 37.2059 125.549 36.7969L115.571 1.13549H114.344L119.415 18.7208ZM86.2073 11.1959H58.8069C58.7251 11.1959 58.6433 11.1959 58.6433 11.2777C58.5615 11.2777 58.4798 11.3595 58.4798 11.4413C58.398 11.5231 58.398 11.6049 58.3162 11.6049C58.3162 11.6867 58.2344 11.7685 58.2344 11.7685V16.8396C58.2344 16.9214 58.2344 17.0032 58.3162 17.0032C58.398 17.085 58.4798 17.1668 58.4798 17.2486C58.5615 17.3304 58.6433 17.3304 58.8069 17.3304H60.0338V13.5679C60.0338 13.4043 60.1156 13.3225 60.1974 13.1589C60.361 12.9954 60.4428 12.9954 60.6063 12.9954H88.0067L91.5238 1.13549H89.2336C89.1518 1.13549 86.2073 11.1959 86.2073 11.1959ZM100.357 30.5807H101.748L104.529 13.8133L104.12 11.6049L103.956 10.7052C103.956 10.5416 103.874 10.4598 103.793 10.378C103.711 10.2962 103.629 10.2144 103.465 10.2144C103.302 10.2144 103.22 10.2962 103.138 10.378C103.057 10.4598 102.975 10.5416 102.975 10.7052L99.8666 29.9264V30.1717C99.8666 30.3353 99.9484 30.3353 100.03 30.3353C100.112 30.4171 100.194 30.4989 100.194 30.4989C100.194 30.5807 100.276 30.5807 100.357 30.5807Z" fill="#BAC6CF"/>
<path fill-rule="evenodd" clip-rule="evenodd" d="M108.373 31.3984C108.209 31.6438 107.964 31.8074 107.719 31.9709C107.473 32.1345 107.146 32.1345 106.819 32.1345H100.357C100.03 32.1345 99.7848 32.0527 99.4576 31.9709C99.2122 31.8074 98.9668 31.6438 98.8033 31.3984C98.6397 31.153 98.4761 30.9076 98.3943 30.6623C98.3125 30.3351 98.2307 30.0897 98.3125 29.7626L101.502 10.5414C101.584 10.0506 101.83 9.64167 102.157 9.3145C102.566 8.98733 102.975 8.82374 103.465 8.82374C103.956 8.82374 104.365 8.98733 104.774 9.3145C105.183 9.64167 105.428 10.0506 105.428 10.5414L108.618 29.7626C108.7 30.0897 108.7 30.3351 108.537 30.6623C108.7 30.9076 108.537 31.153 108.373 31.3984ZM61.3424 41.5406H58.8069C58.5615 41.5406 58.3161 41.4588 58.0707 41.3771C57.8253 41.2135 57.58 41.1317 57.4164 40.9681C57.2528 40.8045 57.0892 40.5591 57.0074 40.3138C56.9256 40.0684 56.8438 39.823 56.8438 39.4958V28.2903C56.8438 27.7178 57.0074 27.227 57.4164 26.8998C57.8253 26.4909 58.3161 26.2455 58.8069 26.2455H61.0152C65.841 26.2455 68.7037 29.1082 68.7037 33.8522C68.7037 38.5143 65.841 41.5406 61.3424 41.5406ZM153.44 33.934L165.3 0.808105H151.477L143.053 27.3088C142.889 27.7178 142.644 28.0449 142.317 28.2903C141.99 28.5357 141.581 28.6993 141.172 28.6993H141.008C140.599 28.6175 140.108 28.4539 139.863 28.1267C139.536 27.7995 139.29 27.3906 139.209 26.9816L133.647 0.889898H119.497L129.394 36.3059H137.818C138.227 36.3059 138.636 36.4695 138.963 36.7149C139.29 36.9603 139.536 37.2874 139.699 37.6146C140.027 38.3507 139.699 39.1687 139.29 39.823C138.391 41.2953 136.182 42.3586 134.546 42.5221C132.256 42.6857 130.048 42.6857 127.676 42.5221C126.122 42.4404 124.731 41.7042 123.995 40.3138C123.259 38.9233 122.932 37.1239 122.523 35.5698C122.114 34.3429 121.869 33.116 121.46 31.8074L112.79 0.97169H94.3865L85.7165 31.562L85.6347 31.7256C85.4711 32.3799 85.2257 32.8707 84.4896 32.8707H84.326C83.9171 32.7889 83.4263 32.6253 83.0991 32.2981C82.772 31.9709 82.5266 31.562 82.4448 31.153C81.2997 23.0556 74.8381 18.8842 63.06 18.8842H58.7251C58.4797 18.8842 58.2343 18.8024 57.9889 18.7206C57.7436 18.557 57.4982 18.4752 57.3346 18.3116C57.171 18.1481 57.0074 17.9027 56.9256 17.6573C56.8438 17.4119 56.762 17.1666 56.762 16.8394V11.7683C56.762 11.5229 56.8438 11.1957 56.9256 10.9503C57.0892 10.705 57.171 10.4596 57.3346 10.296C57.4982 10.1324 57.7436 9.96884 57.9889 9.88704C58.2343 9.72346 58.4797 9.72346 58.7251 9.72346H84.9804L87.6795 0.808105H0.897949L3.59709 9.72346H13.1668C13.7393 9.72346 14.2301 9.88704 14.5573 10.3778C14.9662 10.7868 15.1298 11.2775 15.2116 11.7683V49.7199H28.5437V11.7683C28.5437 11.5229 28.6255 11.1957 28.7073 10.9503C28.8709 10.705 28.9527 10.4596 29.1163 10.296C29.2799 10.1324 29.5252 9.96884 29.7706 9.88704C30.016 9.72346 30.2614 9.72346 30.5067 9.72346H41.3851C41.6305 9.72346 41.8759 9.80525 42.1212 9.88704C42.3666 10.0506 42.5302 10.1324 42.7756 10.296C42.9392 10.4596 43.1027 10.705 43.1845 10.9503C43.3481 11.1957 43.3481 11.4411 43.3481 11.7683V49.7199H63.878C70.176 49.7199 75.4925 47.7568 78.7642 44.4034C79.0913 44.0762 79.5003 43.8308 79.9092 43.749C80.3182 43.6672 80.809 43.749 81.2179 43.9944C81.8723 44.4034 81.7905 45.1395 81.6269 45.9574L81.5451 46.121L80.5636 49.7199H95.0408L96.3495 41.8678C96.4313 41.3771 96.6767 40.9681 97.0038 40.6409C97.4128 40.3138 97.8217 40.1502 98.3125 40.1502H108.864C109.354 40.1502 109.763 40.3138 110.172 40.6409C110.581 40.9681 110.827 41.3771 110.827 41.8678L112.135 49.7199H129.803C145.098 49.7199 148.942 47.4297 153.44 33.934Z" fill="#DF2C1F"/>
<path fill-rule="evenodd" clip-rule="evenodd" d="M41.9577 11.7688C41.9577 11.6053 41.8759 11.5235 41.7941 11.3599C41.6305 11.1963 41.5488 11.1963 41.3852 11.1963H30.5886C30.5068 11.1963 30.425 11.1963 30.425 11.2781C30.3432 11.2781 30.2614 11.3599 30.2614 11.4417C30.2614 11.5235 30.1796 11.6053 30.0978 11.6053C30.0978 11.687 30.016 11.7688 30.016 11.7688V51.1927H15.457V52.9103H31.7337V13.4865C31.7337 13.3229 31.8155 13.2411 31.8973 13.0775C31.9791 12.9139 32.1426 12.9139 32.3062 12.9139H41.9577V11.7688Z" fill="#BAC6CF"/>
</g>
<defs>
<clipPath id="clip0_372_4646">
<rect width="168.328" height="52.1834" fill="white" transform="translate(0.897949 0.808105)"/>
</clipPath>
</defs>
</svg>
