<svg width="195" height="66" viewBox="0 0 195 66" fill="none" xmlns="http://www.w3.org/2000/svg">
<g clip-path="url(#clip0_235_2805)">
<path d="M95.4264 38.9819H81.8658C80.3084 38.9819 79.4656 40.039 79.4656 41.3217V56.6391C79.4656 58.1453 80.5681 59.0097 81.9315 59.0097C83.2615 59.0097 84.3317 58.1443 84.3317 56.6391V43.6285H92.9938V56.638C92.9938 58.1443 94.0641 59.0087 95.4275 59.0087C96.7574 59.0087 97.8611 58.1113 97.8611 56.605V41.3207C97.86 40.039 96.9849 38.9819 95.4264 38.9819Z" fill="black"/>
<path d="M119.046 38.9819H118.852C117.425 38.9819 116.483 39.6866 115.477 41.0971L107.561 52.1841V41.3526C107.561 39.8463 106.588 38.9819 105.258 38.9819C103.895 38.9819 102.89 39.8474 102.89 41.3526V56.1249C102.89 57.727 103.928 58.8171 105.582 58.8171H105.81C107.335 58.8171 108.308 58.0485 109.249 56.7019L117.165 45.6149V56.4453C117.165 57.9516 118.138 58.8171 119.501 58.8171C120.831 58.8171 121.836 57.9516 121.836 56.4453V41.673C121.836 40.0071 120.831 38.9819 119.046 38.9819Z" fill="black"/>
<path d="M146.103 54.1703H144.871V41.1608C144.871 39.6545 143.768 38.7891 142.405 38.7891C141.075 38.7891 140.003 39.6545 140.003 41.1608V54.1703H131.569V41.1608C131.569 39.6545 130.531 38.7891 129.135 38.7891C127.773 38.7891 126.702 39.6545 126.702 41.1608V56.4781C126.702 57.7598 127.579 58.8169 129.103 58.8169H143.702V60.9321C143.702 62.4384 144.74 63.3027 146.07 63.3027C147.432 63.3027 148.47 62.4373 148.47 60.9321V56.542C148.471 54.9708 147.532 54.1703 146.103 54.1703Z" fill="black"/>
<path d="M170.469 54.1703H169.236V41.1608C169.236 39.6545 168.133 38.7891 166.77 38.7891C165.44 38.7891 164.369 39.6545 164.369 41.1608V54.1703H155.934V41.1608C155.934 39.6545 154.896 38.7891 153.5 38.7891C152.138 38.7891 151.068 39.6545 151.068 41.1608V56.4781C151.068 57.7598 151.944 58.8169 153.468 58.8169H168.068V60.9321C168.068 62.4384 169.106 63.3027 170.436 63.3027C171.798 63.3027 172.836 62.4373 172.836 60.9321V56.542C172.837 54.9708 171.896 54.1703 170.469 54.1703Z" fill="black"/>
<path d="M194.185 55.4521L187.567 41.2249C186.82 39.6547 185.782 38.9819 184.29 38.9819H184.03C182.473 38.9819 181.435 39.6547 180.689 41.2249L174.071 55.4521C173.422 56.8615 173.876 58.1113 175.173 58.5924C176.34 59.0417 177.509 58.7851 178.158 57.4396L179.65 54.3312C180.98 54.7804 182.635 55.004 184.192 55.004C185.846 55.004 187.307 54.7794 188.539 54.3312L189.967 57.4076C190.583 58.7532 191.849 59.0097 192.984 58.5924C194.282 58.1113 194.801 56.7977 194.185 55.4521ZM184.192 50.7416C183.187 50.7416 182.115 50.6139 181.305 50.3893L184.127 44.1736L186.95 50.3893C186.171 50.6139 185.198 50.7416 184.192 50.7416Z" fill="black"/>
<path d="M101.267 22.3921H100.034V9.54236C100.034 8.26068 99.1575 7.20361 97.6336 7.20361H86.5055C85.2079 7.20361 84.3316 8.06906 84.3316 9.57429V12.6827C84.3316 14.9256 84.2993 16.6555 83.9102 18.5141C83.5212 20.3408 83.034 21.4617 82.3205 22.3911H81.7698C80.2124 22.3911 79.4666 23.3523 79.4666 24.7309V29.1529C79.4666 30.6592 80.5045 31.5235 81.8355 31.5235C83.1978 31.5235 84.2357 30.6581 84.2357 29.1529V27.0377H98.8676V29.1529C98.8676 30.6592 99.9055 31.5235 101.236 31.5235C102.598 31.5235 103.636 30.6581 103.636 29.1529V24.7309C103.635 23.3534 102.889 22.3921 101.267 22.3921ZM95.1676 22.3921H87.2837C87.7708 21.367 88.1599 20.4377 88.4843 19.0283C88.8087 17.5539 88.9391 16.0795 88.9715 14.157L89.0038 11.8502H95.1676V22.3921Z" fill="black"/>
<path d="M115.056 7.04297C109.249 7.04297 104.772 11.3692 104.772 17.1367C104.772 22.9681 109.249 27.2305 115.056 27.2305C120.863 27.2305 125.34 22.8085 125.34 17.0728C125.34 11.3053 120.863 7.04297 115.056 7.04297ZM115.056 22.7126C111.876 22.7126 109.573 20.3409 109.573 17.1048C109.573 13.9325 111.876 11.5608 115.056 11.5608C118.268 11.5608 120.539 13.9315 120.539 17.1048C120.539 20.3409 118.365 22.7126 115.056 22.7126Z" fill="black"/>
<path d="M161.288 7.04297C155.481 7.04297 151.004 11.3692 151.004 17.1367C151.004 22.9681 155.481 27.2305 161.288 27.2305C167.095 27.2305 171.572 22.8085 171.572 17.0728C171.572 11.3053 167.095 7.04297 161.288 7.04297ZM161.288 22.7126C158.109 22.7126 155.806 20.3409 155.806 17.1048C155.806 13.9325 158.11 11.5608 161.288 11.5608C164.5 11.5608 166.771 13.9315 166.771 17.1048C166.771 20.3409 164.597 22.7126 161.288 22.7126Z" fill="black"/>
<path d="M147.661 22.3921H146.428V9.54236C146.428 8.26068 145.552 7.20361 144.028 7.20361H132.9C131.602 7.20361 130.726 8.06906 130.726 9.57429V12.6827C130.726 14.9256 130.693 16.6555 130.304 18.5141C129.915 20.3408 129.428 21.4617 128.715 22.3911H128.163C126.605 22.3911 125.86 23.3523 125.86 24.7309V29.1529C125.86 30.6592 126.898 31.5235 128.229 31.5235C129.591 31.5235 130.629 30.6581 130.629 29.1529V27.0377H145.261V29.1529C145.261 30.6592 146.299 31.5235 147.629 31.5235C148.991 31.5235 150.029 30.6581 150.029 29.1529V24.7309C150.03 23.3534 149.283 22.3921 147.661 22.3921ZM141.562 22.3921H133.678C134.165 21.367 134.554 20.4377 134.878 19.0283C135.203 17.5539 135.333 16.0795 135.366 14.157L135.398 11.8502H141.562V22.3921Z" fill="black"/>
<path d="M30.7014 0.90585C49.6315 0.90585 64.1697 13.7673 64.1697 32.8552C64.1697 52.0452 49.6315 65.1153 30.7014 65.1153H9.47136C5.18289 65.1153 1.62622 62.3146 1.62622 57.4402V8.89185C1.62622 4.01637 5.18289 0.904785 9.47136 0.904785L30.7014 0.90585Z" fill="#FF6900"/>
<path d="M16.397 34.5488C16.397 28.6354 14.4808 23.2585 15.1102 19.8904L14.9571 19.6956C12.7768 21.9428 11.3584 21.3488 11.2043 20.6249C10.8939 19.1761 13.4461 17.4026 14.9043 16.7863C14.9323 16.6915 14.9701 16.5925 15.0099 16.4925C13.6455 16.7 12.0428 16.5297 11.9868 15.5653C11.921 14.422 14.2447 13.4011 17.2819 13.6545C17.339 13.6066 17.3983 13.5587 17.4576 13.5108C17.2668 13.4352 17.062 13.3415 16.8066 13.2116C16.022 12.8124 15.8312 12.1492 16.0877 11.667C16.369 11.1369 17.228 10.9304 17.9243 10.9453C19.0171 10.9676 19.9472 11.2295 20.6273 11.502C20.7038 11.4701 20.7814 11.4381 20.8547 11.4105C20.6025 11.2157 20.3827 11.0038 20.2544 10.7867C20.0669 10.4684 20.0205 10.0308 20.3837 9.74769C20.8084 9.41662 21.8862 9.29953 22.8605 10.1735C23.062 10.3534 23.2323 10.529 23.3864 10.6972C23.4953 10.677 23.6041 10.6557 23.7141 10.6387C23.5535 10.3938 23.4252 10.1384 23.3843 9.90098C23.3272 9.5763 23.4349 9.22714 23.8208 9.10365C24.2422 8.96846 24.7757 9.18243 25.0527 9.58801C25.3491 10.0223 25.5312 10.5567 25.6455 10.9368C23.4974 11.1837 17.8003 12.4686 17.8003 19.2698C17.8003 25.9017 23.3789 32.869 23.3789 43.149C23.3703 46.8844 22.5361 50.6315 19.1077 54.996C16.4606 58.3663 12.2551 61.6184 5.69795 64.2882C6.82207 64.83 8.10893 65.1153 9.47125 65.1153H11.8283C17.2528 62.1474 19.9451 59.4265 21.8107 56.8738C25.4482 58.4748 28.9478 59.1625 32.1013 59.1625C38.014 59.1625 43.0537 56.4725 45.6813 51.6747C48.3855 50.0716 50.1789 46.7758 50.2921 44.4211C51.9766 42.3283 52.2881 39.6861 51.7708 37.9031C51.6468 37.4783 51.2976 37.4656 50.6919 37.8296C45.3645 40.9848 40.2052 42.4869 35.2819 42.4869C32.2964 42.4869 29.2345 42.0185 25.9763 41.087C25.7435 37.638 25.0268 34.7457 24.7595 32.9925C24.3791 30.6771 24.9201 28.9643 27.4928 28.9643C29.38 28.9643 32.872 29.438 35.6623 30.691C38.4257 31.9322 40.0704 34.3753 41.2193 34.3753C41.686 34.3753 42.1764 34.0889 42.1764 33.1138C42.1764 31.1381 41.4629 27.9573 40.5759 26.8236C43.1615 26.6778 45.2157 26.7044 46.3711 26.8332C48.7789 27.2462 48.892 28.4395 49.3663 29.2177C49.8405 29.9958 50.6445 30.3344 51.6113 30.3344C53.4015 30.3344 54.518 29.4221 54.518 26.1295C54.518 18.8972 49.8955 15.3918 45.0476 15.3918C41.0674 15.3918 39.5305 16.2561 35.7507 16.2561C33.0692 16.2561 30.8479 10.8676 27.801 10.1597C26.4549 7.20349 23.4371 6.8703 21.5779 8.3553C19.8901 7.34082 17.2506 7.88798 17.1418 9.76046C15.1996 9.16646 12.6916 10.2012 13.7727 12.7219C9.02397 12.855 8.13803 17.0024 11.3606 17.4654C7.21222 19.7839 9.10804 23.7887 12.5893 22.937C12.835 25.7814 14.0022 30.3738 14.0022 33.5449C14.0022 37.9552 11.9771 38.9793 9.20827 38.9793C7.02038 38.9793 3.8086 38.1947 1.63257 37.5816V40.657C3.83447 41.1978 7.13678 41.8918 9.61459 41.8918C13.9764 41.8929 16.397 39.3647 16.397 34.5488ZM26.0184 44.5393C29.007 45.3589 33.1382 45.7965 36.5655 45.5591C42.5892 45.1418 47.1116 42.9265 49.6573 41.3138C48.1279 45.129 42.392 47.4986 36.8306 48.1693C36.7951 48.4471 36.753 48.7186 36.7024 48.9804C40.8745 48.7611 44.8364 47.422 46.6319 46.1988C45.6048 49.9513 40.5015 51.4597 35.8693 51.6768C35.7388 51.9717 35.6009 52.2496 35.4586 52.5136C38.1563 52.5615 40.7397 52.0675 42.2788 51.5885C40.8939 54.1997 36.1139 56.2628 31.2456 56.2628C28.8529 56.2628 25.8675 55.8018 23.2765 54.584C25.1486 51.201 25.8696 47.7339 26.0184 44.5393ZM38.0679 23.3852C38.7243 21.4531 39.2944 19.9958 40.3593 18.8844C41.4812 17.7135 42.7272 17.3473 45.4626 17.3473C49.2402 17.3473 52.3959 21.1188 52.3959 26.3903C52.3959 27.1738 51.3311 27.1685 50.9894 26.4521C49.7047 24.2113 47.9641 23.8887 45.2222 23.6897C43.1992 23.5726 40.7591 23.7418 38.5368 23.8355C38.1218 23.8568 38.0054 23.5704 38.0679 23.3852Z" fill="black"/>
<path d="M1.62622 50.0365C3.90895 49.5884 6.15504 49.1732 6.15504 49.1732L6.44173 47.9575C5.41138 47.9064 3.36791 47.9299 1.62622 47.9767V50.0365Z" fill="black"/>
<path d="M26.2287 13.7388C27.0262 13.4737 28.1719 14.2508 28.7851 15.4686C29.3984 16.6864 29.2475 17.8936 28.45 18.1533C27.6589 18.4301 26.5186 17.653 25.9021 16.4288C25.8191 16.2638 25.7534 16.0999 25.6984 15.938L25.8374 15.8997C26.0929 16.1392 26.3979 16.2052 26.6016 16.0764C26.8818 15.8944 26.8527 15.4111 26.6156 14.9938C26.4464 14.6521 26.0551 14.2944 25.7318 14.321L25.6758 14.2487C25.7965 14.0049 25.9797 13.8239 26.2287 13.7388ZM31.8191 25.9935C28.2473 25.2185 24.3382 24.1944 22.2538 21.168C22.215 21.1116 22.1439 21.086 22.0771 21.1052C22.0113 21.1233 21.9639 21.1829 21.9607 21.251C21.9531 21.416 21.9757 21.597 22.0135 21.7769L21.7311 21.8823C21.1814 21.118 21.0693 20.1897 21.6147 19.5223C22.3993 18.5621 23.9912 18.66 24.9418 19.253L24.8211 19.5116C24.3113 19.4275 23.8252 19.4275 23.4458 19.6553C23.1236 19.8491 23.0794 20.1365 23.2777 20.5006C25.0086 23.6781 30.0418 24.368 36.0224 23.9081C36.64 23.8602 36.7823 23.5855 36.862 23.2917C37.3815 21.2457 38.3235 19.4211 39.7257 18.0309C38.635 18.182 37.6208 18.2161 36.7359 18.264C33.647 18.4567 31.8805 18.0564 31.3287 17.621L31.4289 17.356C31.7577 17.4678 32.0993 17.4933 32.1694 17.3975C32.2653 17.2687 32.192 17.1878 32.0411 17.0569C31.4548 16.514 28.8196 13.8463 28.825 13.8612C28.5405 11.6055 25.2145 11.5235 23.8888 13.743L23.4383 13.6238C23.5698 13.1373 23.767 12.7402 23.9502 12.4518C21.1728 13.0713 19.5928 15.5335 19.3061 17.9117C18.0753 28.1342 33.772 25.772 38.2588 29.8662C38.344 29.9322 38.5574 30.2324 38.7104 30.0429C38.885 29.4861 36.9084 27.1059 31.8191 25.9935Z" fill="white"/>
<path d="M49.653 41.3076C47.1084 42.9193 42.5817 45.1377 36.5612 45.555C33.136 45.7924 28.9995 45.3528 26.013 44.5331C25.9667 45.5167 25.8664 46.5323 25.6951 47.5574C27.3786 47.9843 30.3759 48.5485 34.6999 48.6698C34.507 49.8184 33.3268 53.7156 30.3047 56.2353C35.8132 56.4631 40.8044 54.3479 42.2724 51.5823C40.7333 52.0614 38.1488 52.5553 35.4522 52.5074C35.5945 52.2445 35.7324 51.9656 35.8628 51.6707C40.493 51.4546 45.5984 49.943 46.6255 46.1927C44.8299 47.4147 40.8648 48.755 36.6959 48.9743C36.7466 48.7124 36.7886 48.442 36.8242 48.1631C42.3845 47.4935 48.1247 45.1196 49.653 41.3076Z" fill="white"/>
</g>
<defs>
<clipPath id="clip0_235_2805">
<rect width="194" height="66" fill="white" transform="translate(0.986572)"/>
</clipPath>
</defs>
</svg>
