<svg version="1.1" id="Слой_1" xmlns="http://www.w3.org/2000/svg" x="0" y="0" viewBox="0 0 300 150" style="enable-background:new 0 0 300 150" xml:space="preserve"><style>.st0{fill:#ec2125}</style><path class="st0" d="m40.5 65.1-3.1-3.2v-.1H20.5l-1 6.1h14.4l-1.7 10.3h-8.4l1.2-6.9h-6.1l-3.7 22h6.1l1.5-9h4.5l2.1 9h7.1L34.2 84l3.5-2.9zM44.2 61.8l-5.4 31.5H57l1.1-6.1H46l1.1-6.6h10.2l1.1-6.1H48.1l1.1-6.6h30.1l-3.2 19.3h-8.8l2.6-15.9h-6.1l-3.7 22h17.3l4.2-3.3 4.3-24.9-3.3-3.3zM156.3 87.2h-8.5l3.2-19.3h8.6l-1 5.7h6.1l1.5-8.5-3.2-3.3h-13.3l-4.3 3.3-4.2 25 3.1 3.2h13.3l4.3-3.2 1.4-8.3h-6.1zM193.7 61.8l-5.2 31.5h6.1l5.4-31.5zM137.1 61.8H129l-7.3 17.1h6.6l3-6.7.9 10.1h-11.8l-4.6 11h6.3l2.1-4.9h8.6l.4 4.9h6.3l-2.4-31.2zM89.9 93.3H96l2.1-12.8-4.6-9.4zM113.6 61.8l-8 9.6-4.6-9.6h-5.9l-.5 3 9.1 18.7 7.6-9.2-3.2 19h6.1l5.4-31.5zM240.6 80.6l.9-6.1h-10.3l.7-3.1h-6.2l-3.8 21.9h18.4l.9-6.1h-12.1l1.1-6.6z"/><path class="st0" d="m215.1 79.5-5.8-17.7H203l-5.3 31.5h6.1l2.9-17.7 5.8 17.7h6.3l4.3-25.4h21.5l1.1-6.1H218zM184.6 61.8l-2.1 12.7h-8.9l2.1-12.7h-6.1l-5.4 31.5h6.2l2.1-12.7h15l3.3-18.8z"/><path class="st0" d="M179.3 93.3h6.1l1.5-9.3h-6.1zM253.3 71.9l3.9-2.5 2.9 2.5-.3-4.2 3.5-2.4h-4.2l-.6-3.8-2 3.8h-4.1l2.8 2.4zM267.3 71.9l3.8-2.5 2.9 2.5-.3-4.2 3.7-2.4h-4.3l-.6-3.8-1.9 3.8h-4.2l2.7 2.4zM281.4 71.9l3.7-2.5 3 2.5-.4-4.2 3.6-2.4h-4.1l-.8-3.8-1.8 3.8h-4.3l2.8 2.4zM256.5 72.6l-2 3.9h-4.1l2.8 2.6-1.9 4 3.9-2.5 2.9 2.5-.3-4 3.6-2.6h-4.2zM270.5 72.6l-1.8 3.9h-4.3l2.7 2.6-1.8 4 3.8-2.5 3.1 2.5-.5-4 3.7-2.6h-4.3zM284.6 72.6l-2 3.9h-4.1l2.7 2.6-1.8 4 3.8-2.5 2.9 2.5-.3-4 3.6-2.6h-4.2zM255.2 87.7l-.7-3.9-1.8 3.9h-4.3l2.8 2.6-1.9 4 3.9-2.5 3 2.5-.4-4 3.7-2.6zM269.3 87.7l-.6-3.9-2 3.9h-4.2l2.8 2.6-1.9 4 3.9-2.5 2.9 2.5-.5-4 3.7-2.6zM283.2 87.7l-.6-3.9-2 3.9h-4.1l2.7 2.6-1.8 4 3.8-2.5 2.9 2.5-.3-4 3.7-2.6z"/></svg>