<svg id="Слой_1" data-name="Слой 1" xmlns="http://www.w3.org/2000/svg" viewBox="0 0 201.34 191.5"><defs><clipPath id="clip-path" transform="translate(.26 -5.01)"><path style="fill:none" d="M0 0h201v201H0z"/></clipPath><style>.cls-3,.cls-7{fill:#fff}.cls-3,.cls-5{fill-rule:evenodd}.cls-5,.cls-6{fill:#b78b1e}</style></defs><g style="clip-path:url(#clip-path)"><path class="cls-3" d="M115.71 171.84c-4 2.34-7.86 4.42-11.52 6.2l-3.77 1.85-3.79-1.89c-3.65-1.78-7.52-3.87-11.51-6.21L38.2 196.5l9-52.25c-3.46-3.07-6.64-6.11-9.47-9l-2.92-3 .59-4.16c.57-4 1.35-8.37 2.34-12.87l-38-37 52.46-7.7c1.8-4.23 3.8-8.19 5.67-11.8l2-3.71 4.13-.73c4-.71 8.36-1.29 13-1.75L100.42 5l23.45 47.52c4.61.46 9 1 13 1.75L141 55l2 3.71c1.91 3.6 3.82 7.56 5.67 11.8l52.45 7.62-38 37c1 4.52 1.78 8.84 2.35 12.88l.58 4.16-2.92 3c-2.82 2.92-6 6-9.47 9l9 52.25Z" transform="translate(.26 -5.01)"/><path d="M115.62 168.55c-5 3-10 5.6-15.21 8.15-5.22-2.55-10.22-5.17-15.22-8.16L42 191.25l8.25-48.09c-4.38-3.84-8.42-7.78-12.45-12 .81-5.76 1.75-11.3 3-17l-34.93-34 48.27-7c2.3-5.35 4.79-10.41 7.53-15.54 5.74-1 11.3-1.83 17.11-2.36l21.63-43.76L122 55.24c5.81.53 11.37 1.35 17.1 2.36 2.73 5.14 5.23 10.17 7.52 15.54l48.28 7-34.9 34.07c1.3 5.68 2.24 11.23 3 17-4 4.19-8 8.12-12.44 12l8.24 48.09Z" transform="translate(.26 -5.01)" style="fill:#101820;fill-rule:evenodd"/><path class="cls-3" d="m120.08 164.39 31.09 16.35-20.9-28.74Z" transform="translate(.26 -5.01)"/><path class="cls-5" d="m145.28 146.41-15 5.56 20.9 28.77ZM148.73 95.16l8.89 13.31 24.93-24.29ZM70.55 152l-20.9 28.77L81 164.26Z" transform="translate(.26 -5.01)"/><path class="cls-3" d="M100.41 64.38V24.51L80.3 65.25c6.42-.55 13.21-.87 20.11-.87ZM63.32 77.63l-45 6.55 38 12.35c2.07-6.53 4.46-12.89 7-18.9ZM57.52 134.83l-7.88 45.91 24-33c-5.64-4.17-11.11-8.53-16.12-12.91ZM138.11 77.72C140.61 83.66 143 90 145 96.36l37.5-12.19Z" transform="translate(.26 -5.01)"/><path class="cls-6" d="M100.42 63.83c6.79 0 13.47.31 19.82.83l-19.82-40.15ZM55.78 96.37 18.27 84.18l32.18 31.36c1.46-6.27 3.25-12.75 5.33-19.17Z" transform="translate(.26 -5.01)"/><path class="cls-3" d="M100.41 65.8a210.76 210.76 0 0 1 31.15 2.2l3.78-5.2c-20.64-3.65-49.22-3.65-69.86 0-9.84 18.5-18.68 45.68-21.6 66.44l6.13-2A223.18 223.18 0 0 1 69.26 68a210.76 210.76 0 0 1 31.15-2.2Z" transform="translate(.26 -5.01)"/><path class="cls-5" d="M135.34 62.78 131.56 68a223.57 223.57 0 0 1 19.26 59.25 223.11 223.11 0 0 1-50.41 36.62A223.41 223.41 0 0 1 50 127.24l-6.12 2c14.57 15.08 37.69 31.88 56.53 41.07 18.84-9.19 42-26 56.52-41.07-2.93-20.77-11.75-47.95-21.59-66.46Z" transform="translate(.26 -5.01)"/><path class="cls-5" d="M122.69 133.63c-6.58 9.82-14.46 7.42-22.28 17.31-7.82-9.9-15.7-7.49-22.28-17.31l-3.08 2.26c-3.83-6.07-4.28-17.45 1.42-23.38 1.29 6 4.52 14.64 12.12 16.21 3.53.72 5-1 5.2-5.41l1-22.93L81 99.3v-7.44h14.72l.15-3.26a9 9 0 1 1 9.06 0l.15 3.26h14.76v7.43L106 100.37l1 22.93c.19 4.36 1.67 6.14 5.19 5.41 7.61-1.56 10.84-10.16 12.12-16.2 5.71 5.93 5.26 17.3 1.42 23.38Z" transform="translate(.26 -5.01)"/><path class="cls-3" d="M123.07 129.44a16 16 0 0 1 1.87 3.51l-2.71-2a8.93 8.93 0 0 0 .84-1.51Zm-15 5c9.85-1.24 17.25-8.48 17.09-17.62-1.55 6.74-6.33 12.59-13.41 14.26a18 18 0 0 1-3.69 3.37Zm-7.62 13.44c-7-8.87-16.28-5.85-22.62-18.45a15 15 0 0 0-1.89 3.57c-2-3.62-2.46-11.3-.19-16.1 3 9.89 8.51 12.7 12.75 13.7s7-.9 7.28-6.58L97 96.16l-12.76-.45L83 97.6V94h14.65l.3-6.44a7 7 0 1 1 5 0l-2.5-1.56v10.26l2.8-2.28h14.67l-1.3 1.73-16.17.55c-.01 10.83-.01 51.63-.01 51.63ZM96.72 81a3.73 3.73 0 1 0 3.72-3.73A3.73 3.73 0 0 0 96.72 81Z" transform="translate(.26 -5.01)"/><path class="cls-7" d="M98.89 119.06 96.18 118l-1.53-1.65-3.8.36-3 .12-2.42 3.17-1.62 2.68.48 2.91.39 2.73 3.8 5.39 5.33 1.81 2.73-.75 3 .36 1.59-.53 3 .3 1.73-.36 2.54.26 2-.45 4.38.84 3.21 2.56-4.49 1.48 1.15 1.7 2.56.92 3.52-1.11.89-2.85-.86-2.68-5.88-4.21h-2.17l-17.84.26-1.73.14-2.71-1-2.57-4.55.23-3.49 1.62-2.1 3.18-.3 3.48 2.28Z" transform="translate(.26 -5.01)"/><path class="cls-6" d="M121.72 136.32a4.56 4.56 0 0 0-.54-1 9.37 9.37 0 0 0-.9-1l-.35-.34a4.26 4.26 0 0 0-1.92-1.13 2.74 2.74 0 0 0-.62-1 3.94 3.94 0 0 0-1.26-.91 5.64 5.64 0 0 0-3.75-.31 5.74 5.74 0 0 0-4.82.23 5 5 0 0 0-4.56.06 5.23 5.23 0 0 0-4.72.14 5.19 5.19 0 0 0-4.72.07 4 4 0 0 0-1-.71 14 14 0 0 0-1.84-.49 5.25 5.25 0 0 0-2.13-3.18 4.94 4.94 0 0 0 .15-1.58 9.23 9.23 0 0 0-.52-2 4.46 4.46 0 0 0 .95-.94 14.87 14.87 0 0 0 .74-1.47 4.5 4.5 0 0 0 1.25.18 13.23 13.23 0 0 0 1.86-.39c.64.84 1.38 1.42 3.41 1.93l.79-.93A12.68 12.68 0 0 1 97 120v-.48a5.6 5.6 0 0 0-.08-.77 5.31 5.31 0 0 1 1.91.91l.65-.76a6.51 6.51 0 0 0-3-1.3 2.72 2.72 0 0 0-.79-.89 3.89 3.89 0 0 0-1.38-.7 5.67 5.67 0 0 0-3.76.28 3.58 3.58 0 0 0-3 .32 5.26 5.26 0 0 0-2.41 3.09 3.68 3.68 0 0 0-1.68 2.45 5.62 5.62 0 0 0 .5 3.67 3.68 3.68 0 0 0 .06 2.67 6.85 6.85 0 0 0 2.11 2.6 2.61 2.61 0 0 0 .31 1.15 3.73 3.73 0 0 0 .93 1.24 5.67 5.67 0 0 0 3.49 1.41 3.54 3.54 0 0 0 2.7 1.06h.14a8.81 8.81 0 0 0 2.52-.74 3.39 3.39 0 0 0 2 .55 7.68 7.68 0 0 0 2.7-.7 3.34 3.34 0 0 0 2 .54 7.52 7.52 0 0 0 2.53-.73 3.17 3.17 0 0 0 2 .54 7.32 7.32 0 0 0 2.61-.65 4 4 0 0 0 2.15.64c.4 0 .91-.05 1.71-.1a6.59 6.59 0 0 0 3.08 2.41 3.3 3.3 0 0 0-.89.12l-.69.19-.44.13c-.43.11-2.61.42-2.61.42l.39.79a4.68 4.68 0 0 0 3.46 2.75 4.3 4.3 0 0 0 1.14 0 10 10 0 0 0 1.35-.27l.47-.13a3 3 0 0 0 1-.48l.39-.3.08-.06a4.31 4.31 0 0 0 1.07-4.55ZM95.13 117.5a2.87 2.87 0 0 1 .8 1.93v.52c0 .39.07.87.14 1.39a4.49 4.49 0 0 1-2.47-1.46 21.89 21.89 0 0 1-1.13-1.88c-.09-.13-.18-.26-.27-.41a3.69 3.69 0 0 0-.52-.63 3.56 3.56 0 0 1 3.45.54Zm-7.13-.08a2.41 2.41 0 0 1 2-.23 2.9 2.9 0 0 1 1.21.92l.33.41c.23.29.49.72.77 1.13a6.25 6.25 0 0 1-1.75.25 6.43 6.43 0 0 1-1.35-.26 11.34 11.34 0 0 0-1.51-.36l-.49-.07a4.44 4.44 0 0 0-.82 0 3.94 3.94 0 0 1 1.61-1.79Zm-3 3.69a2.53 2.53 0 0 1 2-.79h.52a8.52 8.52 0 0 1 1.31.18 4.83 4.83 0 0 1-1.42 2c-.56.47-1.28.87-1.82 1.28l-.39.3a4.19 4.19 0 0 0-.59.54 3.52 3.52 0 0 1 .39-3.51Zm1.7 7.52c-.06.15-.12.29-.18.45a7.55 7.55 0 0 0-.27.73A5.61 5.61 0 0 1 85 128a2.56 2.56 0 0 1 .9-3l.39-.34c.27-.26.68-.55 1.07-.86a4.48 4.48 0 0 1 0 3.35c-.17.49-.46 1-.63 1.43Zm.63 3a2.86 2.86 0 0 1 .14-2.09c.06-.16.13-.33.18-.48v-.05c.14-.36.32-.81.49-1.31a4.49 4.49 0 0 1 1.56 2.41 20.41 20.41 0 0 1 .22 2.24l.06.49a4.05 4.05 0 0 0 .18.79 3.54 3.54 0 0 1-2.82-1.98Zm30.8 3.65v-.53c0-.17.06-.55.06-.82a3.47 3.47 0 0 1 1 .64l.32.32c.89.93 2.19 2.29.88 4.74a10.24 10.24 0 0 0-.88-1c-.12-.1-.23-.22-.35-.34-.49-.47-1-.77-1.18-1.42a12.5 12.5 0 0 1 .16-1.57Zm-24.53-.42a2.4 2.4 0 0 1-1.83-.69 2.84 2.84 0 0 1-.68-1.35c0-.19-.07-.35-.1-.52-.08-.36-.12-.86-.18-1.35a6.74 6.74 0 0 1 1.67.55 6.35 6.35 0 0 1 1.1.85 11.09 11.09 0 0 1 1.07 1.18l.29.36c.14.18.29.38.47.57a6.27 6.27 0 0 1-1.8.42Zm2.19-1.6-.31-.39a8.62 8.62 0 0 0-1-1 3.87 3.87 0 0 1 4.88 1.46l.28.36c.15.18.3.38.48.57-2.69 1.09-3.52.03-4.32-.98Zm7.16 1.26a2.86 2.86 0 0 1-2.42-1.44l-.31-.39a8.81 8.81 0 0 0-1-1 3.69 3.69 0 0 1 3.75.38 6.64 6.64 0 0 1 1 1.11c.09.11.18.23.28.34a5.44 5.44 0 0 0 .45.55 5.84 5.84 0 0 1-1.7.47Zm2.19-1.55c-.1-.14-.2-.26-.3-.38a7.41 7.41 0 0 0-.93-1 3.76 3.76 0 0 1 4.73 1.44l.28.35c.14.17.28.37.45.55-2.66 1.07-3.45.07-4.22-.93Zm7.17 1.34a2.3 2.3 0 0 1-.38 0 3.37 3.37 0 0 1-2.17-1.44l-.3-.38a7.38 7.38 0 0 0-.93-1c1.73-.59 2.74-.36 3.52.24a3.48 3.48 0 0 1 .7.85l.25.46c.19.33.38.79.58 1.24-.58.04-.93.06-1.26.05Zm4.71 2v.22a4.47 4.47 0 0 1-2.2-1.83 22.22 22.22 0 0 1-.88-2.08v-.05l-.2-.45a3.64 3.64 0 0 0-.41-.7 3.55 3.55 0 0 1 3.34 1.12 2.89 2.89 0 0 1 .49 2 4.67 4.67 0 0 0 0 .52v.65a3.05 3.05 0 0 0-.16.63Zm2 4.37-.43.12c-1.24.33-3.06.81-4.57-1.53a10.31 10.31 0 0 0 1.33-.27l.47-.14c1.22-.37 2.48-.75 3.91 1.63Z" transform="translate(.26 -5.01)"/><path class="cls-7" d="m102.12 80.64-2-1-1.36-1.79-3.44-.36-2.32-.36-2.35 1.61-.81 1.37-1.53 1.12-.2 3.63-.11 2.06 1.53 3.13.36 1.78 2.1 1.9 1.11 2L95.12 97l.75 1.84 2.21 1.51.59 1.73 2.5 1.62.37 1.54 2.37 1.56.76 1.76 2.51 1.62.45 1.64 2.4 1.54.47 1.58 1.42 1.74-.72 2-.28 1.33-1.34 1.07-.64 1h-1.65l-1.57.45-1.64 3.18 2 .22 1.62-.64 1.7.25 1.93-1 1.23-1.87 1.42-1.31.62-2.54.69-2.37-.56-2-1.36-1.45-1-2.23-1.9-1.06-.89-2-2.18-1.51-1.53-2.4-1.43-.81-.94-2-2-.87-1.17-2.42-1.76-.92-.92-1.93-2.26-1.7-1-2-1.45-.89-.48-2.35-1.09-1.31.31-2 .05-1.92L93.22 81l.53-.47 2.15.3h1.09l1.81 2 1 .36Z" transform="translate(.26 -5.01)"/><path class="cls-6" d="M115.05 118.73a3.35 3.35 0 0 0 .56-2.66 5.11 5.11 0 0 0-1.7-2.93A3.35 3.35 0 0 0 113 111a6.15 6.15 0 0 0-2.19-1.66 5 5 0 0 0-3-3.27 5 5 0 0 0-3-3.25 5 5 0 0 0-3-3.28 5 5 0 0 0-3-3.29 5 5 0 0 0-3-3.29l-.85.76a6.63 6.63 0 0 1-.11 1.45c0 .13 0 .28-.08.43s-.08.44-.11.68a5.7 5.7 0 0 1-1.44-1 2.66 2.66 0 0 1-.47-2.71q.06-.24.12-.45a11.71 11.71 0 0 0 .27-1.28 4.66 4.66 0 0 1 1.38 1.42 3.44 3.44 0 0 1 .48 1.45l.84-.76a4.84 4.84 0 0 0-.8-1.67 6.38 6.38 0 0 0-.73-.76 12.54 12.54 0 0 0-1-.77 5.05 5.05 0 0 0-1.46-3.44 4.94 4.94 0 0 0 .37-1.43 8.35 8.35 0 0 0-.22-1.83 4.18 4.18 0 0 0 1-.71 9.81 9.81 0 0 0 .89-1.23 3.71 3.71 0 0 0 1.1.35 12.29 12.29 0 0 0 1.74-.08c.46.84 1.39 1.54 3.15 2.3l.86-.73c0-.5.21.25.26-.2v-.37c0-.14.53-.25.54-.41s.33-.2.32-.46c.74.33.29-.47.66-.09l.69-.6a6.14 6.14 0 0 0-2.5-1.61 2.7 2.7 0 0 0-.59-.92 3.65 3.65 0 0 0-1.15-.84 6.34 6.34 0 0 0-3.79-.34 3.31 3.31 0 0 0-2.81-.11 4.79 4.79 0 0 0-2.62 2.44 3.35 3.35 0 0 0-1.88 2 5.09 5.09 0 0 0-.08 3.39 3.34 3.34 0 0 0-.34 2.43 5.56 5.56 0 0 0 1.47 2.62 3.31 3.31 0 0 0 .54 2.23 6 6 0 0 0 2.15 2 3.53 3.53 0 0 0 .28.95 3.27 3.27 0 0 0 .62.91 6.86 6.86 0 0 0 2.1 1.44 3.13 3.13 0 0 0 .87 1.81 7.36 7.36 0 0 0 2.15 1.51 3.13 3.13 0 0 0 .86 1.78 7.13 7.13 0 0 0 2.12 1.47 3.13 3.13 0 0 0 .87 1.81 7.36 7.36 0 0 0 2.15 1.51 2.77 2.77 0 0 0 .86 1.78 7 7 0 0 0 2.1 1.42 3.22 3.22 0 0 0 .87 1.81 7.17 7.17 0 0 0 2.15 1.5 3 3 0 0 0 .12.48 4.49 4.49 0 0 0 .38 1.1 9.09 9.09 0 0 0 1.12 1.47 3.94 3.94 0 0 0-.47 1.12 11.3 11.3 0 0 0-.12 1.51 4.11 4.11 0 0 0-1.12.84 8.34 8.34 0 0 0-1.05 1.52 4.36 4.36 0 0 0-1.22-.11 14.15 14.15 0 0 0-1.47.36l-.4 1a11.57 11.57 0 0 0 .64 1.27l.25.38c.13.2.13.4.33.58a3.07 3.07 0 0 1-2.08-.07l-.33.86a4.78 4.78 0 0 0 3.58-.16 3.32 3.32 0 0 0 2.71-.28 5.1 5.1 0 0 0 2.26-2.52 3.45 3.45 0 0 0 1.78-1.68 4.9 4.9 0 0 0 .53-2.75ZM99.47 79a2.62 2.62 0 0 1 .43 1.86v.48c0 .36-.06.8-.08 1.28a5.4 5.4 0 0 1-2.36-1.74 17.73 17.73 0 0 1-.8-1.91l-.18-.41a2.69 2.69 0 0 0-.38-.64A4.06 4.06 0 0 1 99.47 79Zm-6.78-1.17a2.21 2.21 0 0 1 1.85.09 2.7 2.7 0 0 1 1 1l.23.43a12.34 12.34 0 0 1 .53 1.13 5.9 5.9 0 0 1-1.61 0 6.66 6.66 0 0 1-1.2-.44 11.72 11.72 0 0 0-1.3-.55l-.44-.14a3.17 3.17 0 0 0-.73-.13 3.69 3.69 0 0 1 1.67-1.4Zm-3.26 2.9a2.33 2.33 0 0 1 1.93-.42l.46.09a7.62 7.62 0 0 1 1.17.36 4.49 4.49 0 0 1-1.58 1.59c-.57.35-1.28.61-1.83.9l-.4.21a4.42 4.42 0 0 0-.62.41 3.25 3.25 0 0 1 .87-3.15Zm.19 7.44a4.91 4.91 0 0 0-.35.61 4.3 4.3 0 0 1-.9-1.75 2.38 2.38 0 0 1 1.23-2.63l.41-.25c.29-.19.71-.4 1.1-.62a4.09 4.09 0 0 1-.46 3c-.26.44-.53.84-.78 1.21ZM92 91.78l-.12.42a6.52 6.52 0 0 0-.17.7 3.49 3.49 0 0 1-1.77-2.38 2.87 2.87 0 0 1 .51-1.82l.25-.41c.18-.29.4-.67.65-1.09a3.94 3.94 0 0 1 1 2.5 7.19 7.19 0 0 1-.35 2.08Zm5.91 6.68v.05c0 .14-.06.28-.08.43s-.09.44-.13.69c-2.44-1.32-2.2-2.55-2-3.75a4.3 4.3 0 0 0 .09-.47 8.61 8.61 0 0 0 .13-1.3 3.65 3.65 0 0 1 1.95 4.35Zm3 3.27c0 .14-.06.28-.08.43s-.09.44-.12.68a5.72 5.72 0 0 1-1.45-1 2.68 2.68 0 0 1-.49-2.66l.09-.46a8.77 8.77 0 0 0 .14-1.37 3.49 3.49 0 0 1 2 2.93 6.56 6.56 0 0 1-.13 1.45Zm3 3.3c0 .14-.06.28-.08.43s-.09.44-.13.69c-2.45-1.32-2.2-2.55-2-3.75a4.3 4.3 0 0 0 .09-.47 8.75 8.75 0 0 0 .12-1.3 3.65 3.65 0 0 1 1.97 4.37Zm3 3.22c0 .14 0 .28-.07.43s-.09.44-.12.68a6.19 6.19 0 0 1-1.45-1 2.7 2.7 0 0 1-.46-2.64l.09-.46a8.91 8.91 0 0 0 .14-1.32 5.09 5.09 0 0 1 2 2.87 6 6 0 0 1-.2 1.44Zm3 3.3-.09.43c0 .21-.08.44-.12.68-2.45-1.31-2.2-2.54-2-3.74l.09-.47a8.75 8.75 0 0 0 .12-1.3 3.65 3.65 0 0 1 1.95 4.4Zm.67 1.67c0-.33.12-.65.18-1l.09-.46a8.62 8.62 0 0 0 .14-1.31 4.87 4.87 0 0 1 1.3 1.06l.06.07a3 3 0 0 1 .6 1.32 2.89 2.89 0 0 1-.33 1.48c-.08.15-.15.29-.21.43-.14.31-.39.71-.61 1.1a4.09 4.09 0 0 1-1.27-2.69Zm-1.61 12a2.3 2.3 0 0 1-1.74-.93 3.47 3.47 0 0 1-.3-.37 8.23 8.23 0 0 1-.65-1 4.43 4.43 0 0 1 2.24-.19c.66.11 1.37.37 2 .5l.44.1a4.13 4.13 0 0 0 .74.1 3.22 3.22 0 0 1-2.78 1.76Zm4.79-4.11a2.31 2.31 0 0 1-2.54 1.22l-.48-.08c-.34 0-.79-.15-1.24-.24a3.93 3.93 0 0 1 2.19-1.86 10.74 10.74 0 0 0 1.34-.21l.43-.12a2.86 2.86 0 0 0 .69-.28 3.54 3.54 0 0 1-.44 1.54Zm.92-3.65a2.29 2.29 0 0 1-1.41 1.37c-.15.07-.31.12-.45.17a8.77 8.77 0 0 1-1.18.3 4.48 4.48 0 0 1 .51-2.19c.3-.59.77-1.18 1.09-1.72l.22-.39a3.2 3.2 0 0 0 .32-.67 3.21 3.21 0 0 1 .85 3.1Z" transform="translate(.26 -5.01)"/></g></svg>