<svg id="Слой_1" data-name="Слой 1" xmlns="http://www.w3.org/2000/svg" viewBox="0 0 108.26 57.72"><path d="M113.1 43c-.29-4.07-3.28-8.17-9.64-13.23.3-.68.45-3.46-2.72-5.12-8-4.18-25.12-8.59-38-9.26.13.34.43 1.29.64 2a313.52 313.52 0 0 0-42.58 1.14c-3.88.38-15.94 2-15.94 2l27.25 11.56c-2.91.65-5.86 1.35-8.83 2.12s-12 3.8-12 3.8l10.9 2.36c5.42 1.16 20.71 4.4 27.24 5.89-.86 2.64-6.48 20.93-6.48 20.93s7.28-7.62 9.54-9.75c2.87-2.7 3.82-3.62 4.68-4.32-.33 3.89-1.06 12.25-1.25 14.32A5.67 5.67 0 0 0 57 71.79 5 5 0 0 0 61 73a7.89 7.89 0 0 0 3.63-1.77C69 67.68 80 58 89.26 49.05l1.57-.2c6.38-.7 12.56.31 13.61 3.46.69 2.08 0 3.35-.66 5.34 1.09-1 3.92-3.61 5-5 1.8-2.22 4.58-5.68 4.3-9.71" transform="translate(-4.86 -15.35)" style="fill:#1d1d1b"/><path d="M63.27 26.86h.12c-.37-.72-.69-1.47-1-2 5.23-.62 17.33 0 22.16 3.06S93.79 32 97.1 31.27a6 6 0 0 1-1.48 1.84 10.34 10.34 0 0 1-3.75.11c-1.36 2.24-4.73 2-10 4.61a170.71 170.71 0 0 0-21.38 12.7c-.22 2.6-.67 7.65-.73 8.44l10.5-3.78-2.15-1.79 9-2c1.45-2.33 12.57-13 14.33-14.29a18 18 0 0 1 1.79-.3 38.76 38.76 0 0 1 7.66-5.37q.08-.24.12-.45a2.67 2.67 0 0 0-1.18-3c-21.37-11.08-60.91-7.5-82.2-5.79l20.08 8.75c9.61-2 18.49-3.28 25.59-4.05" transform="translate(-4.86 -15.35)" style="fill:#cab9a0"/><path d="m68.11 53.4 2.13 1.79L59.73 59s-.57 6.75-.72 8.34c-.19 2.16 1.65 2.82 3.4 1.39 3.91-3.19 13-11 21.46-18.88Z" transform="translate(-4.86 -15.35)" style="fill:#877b63"/><path d="M86.86 34.49c-4 .63-5.91-2.15-6.26-5.09-1.44-.24-2.86-.37-4.15-.49-.06 3.69 2.45 7.7 8.5 6.8 2.25-.34 3.33-1.09 3.82-1.88a4.87 4.87 0 0 1-1.91.66" transform="translate(-4.86 -15.35)" style="fill:#fff"/><path d="M100.86 31.4c-8.33 4.28-15 13-17.36 16.13 6.88-2.22 21.09-3.42 23.38 3.48 3.77-4.87 7.58-9.11-6-19.61m-4 5.68a3.75 3.75 0 0 1 2-1.83 9.39 9.39 0 0 1 3.55 2.54Z" transform="translate(-4.86 -15.35)" style="fill:#f5f0e0"/><path d="M77.71 36.66c-2.85-1.59-3.77-4.7-3.46-7.61-4.56.35-29.1 2.27-51.28 8.12 7.16 1.24 30.42 6.62 30.42 6.62s-2.54 7.5-3.86 12.27c8.47-7.4 14.11-11.76 28.18-19.4m-26.39.18 17.4-1.93-9.4 6.88.2-2.81Z" transform="translate(-4.86 -15.35)" style="fill:#e30613"/></svg>