<svg version="1.1" id="Слой_1" xmlns="http://www.w3.org/2000/svg" x="0" y="0" viewBox="0 0 143 219" style="enable-background:new 0 0 143 219" xml:space="preserve"><style>.st2{fill:#fff}.st3{fill:#ffae0d}</style><g id="Layer_x0020_1"><g id="_196171024"><path id="_196172896" d="M47 146.4c-.7 1.1-1.5 2-2.3 3-1.4 1.7-2.7 3.4-3.8 5.7 2.2-.8 4.7-1.3 7.5-1.6 1.3-1 3.6-2.9 6.5-5.2-2.9-.2-5.6-.9-7.9-1.9zm28.7 71.2c-2.4-2-4.2-4.1-5.4-5.7-.9.2-1.9.3-3 .3-.9 0-1.7-.1-2.5-.2-1.7 2.3-4.2 5.1-6.7 6.2l-1.5.6-1.5-.5c-5.1-1.8-9-6.5-11-12.9-.2-.1-.4-.1-.6-.2l-2.3 4.8-3-.5c-4.9-.8-10.2-5.7-12.7-11.8-1.8-4.3-3.7-12.8 2.6-22.8-.2-2.9.1-8.7 4-13.6.3-.3.6-.7.8-1-1.6-.6-3.5-1.6-4.9-3.3h-.2c-1.3 0-2.7-.2-3.9-.6-1.6 1.2-2.6 2.3-2.6 2.3l-2.2 2.4-2.8-1.7c-.4-.2-3.3-2.1-4.9-5.9-.3-.1-.7-.2-1-.4l-1.9 3.2-3.5-1.9c-2.6-1.5-4.1-5.6-4.6-8.6-.8-4.9.2-9.6 2.8-13.4.3-2.6 1.3-4.9 3-6.7 2.4-2.5 5.8-3.4 8.3-3.8 1.1-5.6.9-11.7.7-18-.2-8.3-.5-16.9 2.2-25.3-2.2-4.3-5-12.2-1.3-19.7l.6-1.2 1.2-.6c3.4-1.8 7-2.3 9.3-2.4 1.7-2.4 5-6.3 10.1-9.3-4.4-.2-8.2-1-11.4-2.5-6.7-3-10.1-9.3-9.2-17.2C18.5 9 34.1 0 47.8 0c1.3 0 2.6.1 3.8.2 5.2.7 9 4 10.6 9.2.8 2.6 1 6.1-.5 8.4 7-1.1 15-2 23.4-2 10.8 0 20.2 1.5 28.7 4.7 4.5 1.6 8.6 3.7 12.2 6.1 8.6 2.6 15.3 10.5 15.9 19.1V46c0 3.5-1.7 7.7-3.7 12.5-1.9 4.7-4.1 10-4.8 15.1 2.9.5 5.5 1.5 5.8 1.6l1.9.7.6 1.9c1.8 5.8 2.7 16.7-5.7 20.6l-3.8 1.8-1.2-2.8c-.8 1.5-2 2.7-3 3.4 3 6.1 4.7 11.3 4.8 11.7l.2.7v.7c-.4 17.8-11.3 31.3-19.1 41.2-3.6 4.5-7.2 9-7.9 11.8 3 5.1 4.1 10.3 3.2 15.1 1.8 4.2 2 8.8.6 13.4-2.2 6.9-7.6 12.2-11.8 14.2l-1.7.8-1.7-.8c-.6-.3-2-.9-3.7-3.9-2.4 7.4-7.9 11.7-11.3 12.8l-2.1.6-1.8-1.5z" style="fill:#fefefe"/><path id="_196172632" d="M137.9 79s-5-1.9-8.7-1.7c-.2-12 8.7-24.7 8.7-31.2-.6-7.4-6.7-13.9-13.6-15.7-3.4-2.4-7.4-4.5-11.9-6-32.6-12.2-71.2 5.1-74.7-.8 5-7.6 16.4-4.1 20.7-7.9 1.2-1.1.7-10.2-7.2-11.3C39.3 2.7 22.5 10 20.8 26.1c-.6 5.5 1.1 10.5 6.9 13.1 15.6 7 42.4-5.5 55-.6-7.4 2.6-17.9 5-26.6 6.9-18.4-1.9-26.6 13.3-26.6 13.3s-5.1-.5-9.7 1.9c-3.4 6.9.3 14.5 2.1 17.6-5.8 15.5.1 32.4-4.1 47.5 0 0-10.7-.7-10.6 8-5.7 6.8-2 16-.1 17.1 1.1-1.9 2.8-3 2.8-3 1.2 1.9 4.7 2.3 4.7 2.3.8 4 3.9 5.9 3.9 5.9s2-2.1 5-4.1c3.2 1.9 6.6.9 6.6.9 1.6 3.7 6 4.2 6 4.2 2.2-8.3 7.2-10.5 9.3-16 3.8 2.6 13.7 6.1 21.8-.3 1.3-2.1 2.5-4 3.6-5.6 3.6-2.5 8.1-5.1 9.9-4-7.2 8.1-30.7 26.5-30.7 26.5-20.8 1.3-17.7 18.5-17.7 18.5-10.7 15.1.1 28.4 6.6 29.5l3-6.2s2.2 2.8 5.5 2.1c1.3 7.2 5.2 11.6 9.1 13 2.9-1.2 6.6-7.2 6.6-7.2 4.4 2 8.9-.1 8.9-.1s2.2 3.8 6.3 7.3c2.8-.9 8.2-5.4 9.4-13.3 3.5.2 4.8-2.1 4.8-2.1s2 5.9 3.8 6.7c5.7-2.8 14.2-13.4 8.7-23.5 1.5-5.4-.4-10.5-3.1-14.6-.2-10.4 26.5-27.2 27.2-54.1 0 0-3.7-11.5-9.9-20.3l3.8.5c.9 1.3 2 4.1 2 4.1s2.7-1.4 3-3.7l4.2-1.7s1.4.3 2.2 2.2c7.3-3.5 3.5-15.8 3.5-15.8z" style="fill:#092247"/><path id="_196172320" class="st2" d="M62.5 103.3c0-.1 0-.1 0 0 0-.1 0-.1 0 0 0-.2-.1-.5-.1-1 0-.1 0-.2-.1-.3-6.9 1.9-12.4-.1-12.4-.1-1-5.2 1-8.6 1-8.6-1.5 1.2-3 5.4-3.3 6.4-.2 1.2-.3 2.1-.3 2.1s-5.3 2.1-11.1-.3c.2.2.4.3.6.5h.1c.2.2.4.3.7.4.2.1.5.3.7.4 0 0 .1 0 .1.1.3.1.5.3.8.4.3.1.6.2.8.4.1 0 .1 0 .2.1l.9.3.9.3c.1 0 .2 0 .2.1.3.1.7.2 1 .3-9 .2-14.4-4.2-14.4-4.2 4.3 6.8 14.6 8.1 14.6 8.1s-5.2.6-9.8-1.1c-1.3-.5-2.6-1.1-3.6-2 1.2 1.9 3.1 3.2 5 4.1 4.2 2 8.8 2.1 8.8 2.1s-4.2.8-7.5 0l-.9-.3c.4.2.7.5 1.1.7.3.1.5.3.8.4 7.8 3.8 12.4-1.4 12.4-1.4s-3.1-4.6-2.7-7.8c.3.1.5.3.8.4.5.2 1 .5 1.5.6 2.7 1 4.7 1 5.3 1h.4c.7 0 3.4-.1 6.8-1.7.2-.2.4-.3.7-.4z"/><path id="_196172728" class="st2" d="m58.8 134.3-3.2.2v1.9s1.2-.1 3.2-.6c0 0 .9.9 1.7.7 0 0 2.8-2.2.7-7-.9 3.5-2.4 4.8-2.4 4.8z"/><path id="_196172800" class="st2" d="M50 129.7c-2.2 4.8.7 6.9.7 6.9.8.2 1.7-.7 1.7-.7 2 .5 3.2.6 3.2.6v-1.9l-3.2-.2c0-.1-1.5-1.4-2.4-4.7z"/><path id="_196172776" class="st2" d="M66.2 108.5c.7 1.5 10.2 3.1 13.2-3.1-4.2 3.7-11.8 3.3-13.2 3.1z"/><path id="_196171744" class="st2" d="M66.2 111.7c1.5 1.7 6.2 1.6 7.8-.4-2.7 1.1-6.3.7-7.8.4z"/><path id="_196171696" class="st2" d="M66.2 104.6c-.1 0 9.6 4.1 14.4-4.2 0 0-5.4 4.5-14.4 4.2z"/><path id="_196171600" class="st2" d="M63 119.4s.9 2.7 0 6.9c2.6-1.2 4.3-3.8 3.8-8.9-2.5 0-3.8 2-3.8 2z"/><path id="_196171504" class="st2" d="M7.4 145.7c.2-.4 1.7-4.2 3.5-4.7 1.2-1 1.1-3 .8-3.2-3.2-.3-5.6 5-4.3 7.9z"/><path id="_196171480" class="st2" d="M73.2 86.8c.6-.1 2.1.5 2.1.5-1.5-2.6-4.4-2.4-6.3-.7.2.4.3.9.3 1.5 0 1.4-1.3 2.5-1.3 2.5s-.9-.8-1.2-1.9c-1.5 1.5-3 2.9-3 2.9 2.4.9 8.8.9 9.4-4.8z"/><path id="_196172152" class="st2" d="M22.4 142.2c-3.5-.1-5.7 6-4 9 .1-.4 1.5-4.8 3.4-5.4 1.2-1.2.9-3.4.6-3.6z"/><path id="_196172056" class="st2" d="M56.7 117.5s-12.4-.3-12.8 0c-.5 5.1 1.2 7.7 3.8 8.9-.8-4.2 0-6.9 0-6.9s9.1-1.8 9-2z"/><path id="_196171960" class="st2" d="M34.9 143.7c-3 1-2.8 6.8-.5 8.7 0-.4-.3-4.4 1.1-5.6.6-1.4-.2-3.1-.6-3.1z"/><path id="_196171936" class="st2" d="M36.3 86.8c.6 5.7 7 5.7 9.4 4.9 0 0-1.4-1.4-3-2.9-.3 1.1-1.2 1.9-1.2 1.9s-1.3-1.1-1.3-2.5c0-.6.1-1.1.3-1.5-1.9-1.7-4.8-1.9-6.3.7 0-.1 1.5-.7 2.1-.6z"/><path id="_196172176" class="st2" d="M95.9 180c-.8.2-2.5 3.9-1.1 6.8 3.1 2.3 2.9 11 2.9 11.9 4.9-4.4 4.7-16.7-1.8-18.7z"/><path id="_196171888" class="st2" d="M38.2 180c-6.4 2.2-6.3 14.4-1.3 18.7 0-.9-.5-9.5 2.6-11.9 1.4-3-.4-6.6-1.3-6.8z"/><path id="_196171864" class="st2" d="M59.4 195.9c-1.2 3.7-2.6 9.2-3.2 13.6-2.2-3.2-3.7-9-3.5-13.8.1-2.4 1.6-4.9 3.9-4.5 2.2.4 2.8 2.3 2.8 4.7z"/><path id="_196171816" class="st2" d="M76.1 195.9c1.2 3.7 2.6 9.2 3.2 13.6 2.2-3.2 3.6-9 3.5-13.8-.1-2.4-1.6-4.9-3.9-4.5-2.2.4-2.9 2.3-2.8 4.7z"/><path id="_196172032" class="st2" d="M53.5 111.2s.6.9 1.2.9 1.2-.9 1.2-.9-.4-2.4 2.6-2.4c.8-.6 1-2.3 1-2.3-1.5.5-3.3.9-4.9.9-1.6-.1-3.4-.4-4.9-.9 0 0 .2 1.6 1 2.3 3.2 0 2.8 2.4 2.8 2.4z"/><path id="_196171120" class="st3" d="M55.2 92.6h-1c-.6 0-1.5.1-2.7.3-.3.1-.5.1-.8.2 0 0-1.9 3.5-1 8.6 0 0 5.5 2 12.4.1-.4-1.9-1.3-5.7-3.6-8.8-.3-.1-.5-.2-.8-.2-.9-.1-1.9-.2-2.5-.2z"/><path id="_196171048" class="st3" d="M47.2 101.7s.1-.9.3-2.1c0 .1-.1.2-.1.2s-.8-3.7.9-6.1c-1.6 1-12 3.6-16 .3 0 2.4 1 5.2 3.8 7.4 5.8 2.5 11.1.3 11.1.3z"/><path id="_196170904" class="st3" d="M26.3 125.9c-.9-1.2.4-2 1.8-1.9.6.1 1.2.3 1.6.7.4.4.4.8.2 1.1-.4.9-2.6 1.3-3.6.1zm5.4 2.8c0-.5 0-1-.1-1.5-.4-4.1-1.8-8.1-3.3-11.1-.5 0-1-.1-1.3-.6-.5-.6-.4-1.3.1-1.8-.4-.8-.8-1.4-1.2-2-.7-1.2-1.2-1.9-1.2-1.9.5 2.9.6 5.7.5 8.2h.4c.4.1.8.2 1.2.5 1 .9-.2 2.2-1.5 2.4H25c-.6 5.6-2.2 9.3-2.2 9.3-7.8-1.4-9.5 3.1-9.5 3.1-.1 2.8 3.9 3.4 3.9 3.4 2-3.7 7.9-2.2 7.9-2.2-2.7 1.5-3.4 4-3.4 4 2.1 3.1 6.3 1.8 6.3 1.8 2.2-2.8 3.2-5.9 3.5-8.9-1 .1-2 0-2.5-.6-.7-1 1-1.9 2.7-2.1z"/><path id="_196170736" class="st3" d="M121.4 35.2c1.8 10 .8 19 .2 23-.2 1.3-.4 2.1-.4 2.1s1-1.4 2-3.7c1.1-2.5 2.4-6 2.6-9.8 0 0 2.2-.9 4.6-.9-1.2-5.3-4.2-8.6-9-10.7z"/><path id="_196171456" class="st3" d="M52.5 10.6s-.1-1.2-.9-2.2c-.5-.7-1.3-1.3-2.5-1.3-2.7-.2-25.7 2.9-24.4 23.1 3.6-18.3 25.8-19.4 27.8-19.6z"/><path id="_196170952" class="st3" d="M69.6 49.1c.5-1.4 5.1-2.6 5.8-1.4.8 1.3.6 2.5-1.1 3-1.7.4-5.3-.2-4.7-1.6zm10.6-1.3c1.2-.7 4.1 1.2 3.7 2.4-.5 1.3-2.4 1.4-3.5.7-1.2-.6-1.4-2.4-.2-3.1zm9.1-3.6c1-.5 3.4.4 3 1.5-.4 1.1-2.7.8-3.7.3-.8-.6-.2-1.2.7-1.8zm6.5-3.7c.9-.4 3.2.8 2.9 1.6-.3.9-2.4.4-3.3-.2-.9-.6-.4-1 .4-1.4zm-59 18.1s9.8-7.8 30.7-1.4c0 0 9.4-4.8 18.8-5.2 10.2 3.5 18.2 10.8 18.2 10.8C102 53 95.6 47 95.6 47s8.3-4.9 9.9-13c-6.4 3.7-14 6.6-20.8 8.9.2.2.3.5.3.8-.2 1.4-2.1 1.8-3.4 1.3-.4-.2-.7-.5-1-.8-9.3 2.8-16.5 4.2-16.5 4.2 2 1.3 3.1 2.5 3.1 2.5-21.5-4.8-30.4 7.7-30.4 7.7z"/><path id="_196171192" class="st3" d="M47.9 77.7c.4-1.9-.3-5.5-.3-5.5s3.8 3.9 2.7 11.9c0 0-2.7-5.6-10.3-9.2-.1 0 4.6 0 7.9 2.8zm-7.7-7.8c.3-1.8 1.4-2.3 2.8-1.1 1.2 1 .3 3.9-.7 4-1 .1-2.3-1.2-2.1-2.9zm8.7-3.6c1.5.1 2.4 2.8 1.7 3.5-.7.7-1.7-.1-3.2-1-1.5-.9-.2-2.7 1.5-2.5zm4 6.5c.9.7.5 3.6-.2 3.8-.8.1-1.3-1.6-1.8-2.8-.6-1.3 1-1.8 2-1zm3.6 0c1-.8 2.6-.3 2.1.9-.5 1.3-1.1 3-1.8 2.8-.8-.1-1.2-3-.3-3.7zm4-6.5c1.7-.1 2.9 1.6 1.5 2.5-1.5.9-2.5 1.7-3.2 1-.7-.8.2-3.4 1.7-3.5zM32.6 80.5l.2-.2.1-.1c.1-.1.2-.1.3-.2l.1-.1c.1-.1.3-.2.4-.2.2-.1.4-.2.6-.2.2-.1.4-.1.6-.1h.6c.2 0 .4 0 .6.1h.1c.2 0 .4.1.5.1h.1c.2.1.3.1.5.2h.1c.2.1.3.2.5.3h.1c.2.1.3.2.5.3 0 0 .1 0 .1.1.2.1.3.2.5.3l.1.1c.2.1.3.2.5.4l.1.1c.1.1.3.2.4.4.1 0 .1.1.2.1.1.1.3.2.4.4l.2.2c.1.1.2.2.4.3l.3.3c1.5 1.4 3 3 4.5 4.2l.3.3c2 1.5 4 2.3 6.2 1.2.1-.1.2-.1.4-.2s.4-.2.5-.4l.9-4.1.9 4.1c2.3 1.7 4.5 1.2 6.6-.2.1-.1.2-.1.3-.2.1-.1.2-.1.3-.2.1-.1.2-.2.3-.2.1-.1.2-.2.3-.2l.3-.3.3-.3.3-.3c.7-.7 1.5-1.4 2.2-2.1l.5-.5c.2-.2.4-.4.6-.5.2-.2.4-.3.5-.5.2-.2.4-.3.5-.5.2-.2.4-.3.5-.5.2-.1.4-.3.5-.4.2-.1.4-.3.5-.4h.1c.2-.1.4-.2.5-.3h.1c.2-.1.4-.2.5-.3h.1c.2-.1.4-.1.5-.2h.1c.2-.1.4-.1.6-.1h.1c.2 0 .4-.1.6-.1h.6c.2 0 .4.1.6.1h.1c.2 0 .3.1.5.2s.3.1.4.2c.1.1.3.2.4.3-5-6.1-13.2-2-17.2 3.9C58.2 76 62 72.1 62 72.1s-.7 3.7-.3 5.5c2.5-2.2 5.9-2.6 7.3-2.7 0-1.1-.1-2.1-.3-3-.4.6-1.1 1-1.6.9-1-.1-1.9-3-.7-4 .4-.3.7-.5 1.1-.6-2.3-4.4-6.4-5.3-6.4-5.3-2.3 0-6.3 4-6.3 6.6 0-2.7-4-6.6-6.3-6.6-8.1 0-13.8 5.7-13.8 5.7.2-2.1 1.3-3.6 1.3-3.6s-7.6-3.1-13.1-1.4c-.6 6.7 3.8 11.4 3.9 11.4v-.4c-.2-1.1-.7-4.5-.1-6.6 7.2 2.5 5.8 6.6 3.9 12.7-.6 1.9.3 3.2.3 3.2s.1-.5.4-1.2c.1-.1.1-.2.2-.4v-.1c.1-.1.1-.2.2-.3v-.1c.1-.1.1-.3.2-.4.1-.1.2-.3.3-.4 0 0 0-.1.1-.1.1-.1.2-.2.2-.3.1 0 .1 0 .1-.1z"/><path id="_196171408" class="st3" d="M110.8 114.1c-1.8.2-1.7-4.3.4-4.2 2.1.1 1.5 4-.4 4.2zm-4.9 6.3c-1-1.6 2.9-2.9 4.1-1.6 1.2 1.3-3 3.2-4.1 1.6zm-.3 5.6c-2.4 1.5-5.6 1.2-5-.6.6-1.8 7.3-.9 5 .6zm-30.4 26.5c-1.3.4-3.2.3-4.7-.2-.9-.3-1.6-.8-1.8-1.3-.2-.8.5-1.5 1.7-2 1.1-.4 2.5-.5 3.8.1 2.8 1.1 2.6 2.9 1 3.4zm38.3-48.1c-.4 0-.9 0-1.4-.2-1.9-.6-1.8-3.7.2-4.1-1.2-3.2-3-5.9-4.9-8-.7 1-2 1.4-3-.4-.4-.7-.1-1.6.4-2.2-3.2-2.8-5.9-4.1-5.9-4.1 3.1 4.4 4.6 8.4 5.1 12 1-.2 2-.2 2.7.5.9 1-.7 2.8-2.5 2.8-.1 5.9-2.8 10.3-4.6 12.7-.9 1.2-1.6 1.8-1.5 1.9 0 0 5.6-3.7 9-6.8l1-1c-.1.2-.1.4-.2.5-2.8 7.1-8.1 13.7-14.5 19.9 1-.1 1.9.1 2.4.6 1.4 1.3-3.4 3.2-5 1.9-1.2 1.2-2.5 2.3-3.8 3.4.4.3.5.7.2 1.4-.5 1.2-2.3 1.7-4.1 1.9-1.8 1.6-3.7 3.1-5.6 4.6 2.8.3 5.8 1.7 3.7 3.7-1.2 1.1-5.2.4-7-1-1.4 1.2-2.9 2.3-4.3 3.5-2.7 2.2-5.3 4.4-7.8 6.6-.8.7-1.6 1.4-2.4 2.2 2.7-.3 5.1-.1 4.1 2-1 2.2-5.6 2.6-8.5 2.2-.5.5-1 1-1.5 1.6 0 0-13.5-.1-16.1 11.3 5.7 1.2 8.3 6 8.9 13.2.1 0 .8-1.4 1.4-3.2.1-.3.2-.5.2-.8.1-.3.2-.6.2-.9.2-.8.3-1.7.3-2.5v-1.3c0-.1 0-.3-.1-.4v-.2c0-.1-.1-.2-.1-.4v-.1c0-.1-.1-.2-.1-.2s4.3-7.2 10.2-8.3c0 0-9 10.2-7 19 0 0 9.4-5.5 11.8 5.7 0-.1.1-.2.1-.3.3-1.1.4-2.2.4-3.2v-.3c-.2-2.4-1.1-4.1-1.1-4.1.7-4.9 1.9-9.3 3.6-13.3.1-.2.2-.4.3-.7 1.1-2.5 2.4-4.9 3.8-7.1.3-.5.7-1.1 1.1-1.6-.4-.2-.8-.5-1.1-.8-.5-.6-.8-1.4-.5-2.4.1-.4.2-.7.4-1 1.1-1.6 3.8-2 6.1-2.1 4.6-5.3 9.7-9.8 14.7-14.1-1.3-.2-2.4-.7-2.5-1.4-.3-1.2 2.2-2.6 4.6-1.6.3.1.6.3.8.4 1.9-1.6 3.7-3.2 5.5-4.8-1.1-.4-2.2-1-2.9-2-1-1.3 3.4-1.8 5.4-.6.1 0 .1.1.2.1 6.8-6.6 11.7-13.5 11.7-22.6 0-1.8-.2-3.5-.4-5.1 0-.1-.1-.3-.1-.4z"/><path id="_196170784" class="st3" d="M75.7 90.8c-2.7 4.5-8.5 4.5-8.5 4.5 7.7 1.5 11.1-1.7 12.6-3.6 0 0-1.7-1.4-4.1-.9z"/><path id="_196171312" class="st3" d="M76.8 166.3c-2.2 2.2-4.4 5.5-5.7 8.9 0 .1-.1.1-.1.2-1.1 2.8-1.6 5.7-1.2 8l1.5.6 1.3.6c-.2.4-1.8 3.3-1.2 7.8 1.7-5 4.7-6.7 8.7-6.3 2.5-2.8 1.3-10.8-1.2-16.6-.7-1.2-1.4-2.3-2.1-3.2z"/><path id="_196171288" class="st3" d="M87.5 163c-.9-.6-1.5-.8-1.6-.6-.4.6-.7 1.3-1 2-1.8 4.5-.9 9.2-.9 9.2l3.5 1.3c-1.6 3.5 1.6 9.9 1.8 9.9.4-4.7 1.7-8.4 4.1-10.7.8-5.3-3.5-9.5-5.9-11.1z"/><path id="_196171360" class="st3" d="M86.7 63.5c-5.5-1.7-13.1 1.4-13.1 1.4s.1.1.1.2c2.1 1.4 3.7 3.3 5 5.4.8-1 2.2-1.8 4.2-2.5.7 2.6-.1 7-.1 7s4.4-4.7 3.9-11.5z"/></g></g></svg>