<svg width="31" height="31" viewBox="0 0 31 31" fill="none" xmlns="http://www.w3.org/2000/svg">
<rect width="31" height="31" rx="6.82432" fill="#08021C"/>
<path d="M16.3689 22C9.8811 22 6.17378 17.4927 6 10H9.2439C9.35975 15.5024 11.7348 17.8439 13.6463 18.3122V10H16.7165V14.7415C18.5701 14.5659 20.5396 12.4 21.2348 10H24.3049C23.7835 12.6341 22.3933 14.6244 20.1341 15.9707C21.3506 16.5561 22.3354 17.3756 23.2043 18.4293C24.0732 19.4829 24.6524 20.6537 25 21.9415H21.6402C21.2927 20.7707 20.7134 19.8341 19.8445 19.0732C18.9756 18.3122 17.9329 17.8439 16.7165 17.6683V21.9415H16.3689V22Z" fill="white"/>
</svg>
