<svg width="31" height="31" viewBox="0 0 31 31" fill="none" xmlns="http://www.w3.org/2000/svg">
<rect width="31" height="31" rx="6.82432" fill="#08021C"/>
<path d="M24.8107 11.7C24.8107 11.7 24.6252 10.39 24.0537 9.81483C23.3301 9.0578 22.5211 9.05409 22.15 9.00956C19.493 8.81659 15.5037 8.81659 15.5037 8.81659H15.4963C15.4963 8.81659 11.507 8.81659 8.85 9.00956C8.47891 9.05409 7.66992 9.0578 6.94629 9.81483C6.3748 10.39 6.19297 11.7 6.19297 11.7C6.19297 11.7 6 13.24 6 14.7764V16.2162C6 17.7525 6.18926 19.2926 6.18926 19.2926C6.18926 19.2926 6.3748 20.6025 6.94258 21.1777C7.66621 21.9348 8.61621 21.9088 9.03926 21.9904C10.5607 22.1351 15.5 22.1797 15.5 22.1797C15.5 22.1797 19.493 22.1723 22.15 21.983C22.5211 21.9385 23.3301 21.9348 24.0537 21.1777C24.6252 20.6025 24.8107 19.2926 24.8107 19.2926C24.8107 19.2926 25 17.7562 25 16.2162V14.7764C25 13.24 24.8107 11.7 24.8107 11.7ZM13.5369 17.9641V12.624L18.6691 15.3033L13.5369 17.9641Z" fill="white"/>
</svg>
